%TF.GenerationSoftware,Altium Limited,Altium Designer,20.1.11 (218)*%
G04 Layer_Color=8388736*
%FSLAX44Y44*%
%MOMM*%
%TF.SameCoordinates,50A8C56D-45DD-42E2-B7DE-0EE63C40E652*%
%TF.FilePolarity,Negative*%
%TF.FileFunction,Soldermask,Top*%
%TF.Part,Single*%
G01*
G75*
%TA.AperFunction,SMDPad,CuDef*%
%ADD14R,3.7000X3.7000*%
G04:AMPARAMS|DCode=15|XSize=0.2425mm|YSize=0.7561mm|CornerRadius=0.1212mm|HoleSize=0mm|Usage=FLASHONLY|Rotation=90.000|XOffset=0mm|YOffset=0mm|HoleType=Round|Shape=RoundedRectangle|*
%AMROUNDEDRECTD15*
21,1,0.2425,0.5136,0,0,90.0*
21,1,0.0000,0.7561,0,0,90.0*
1,1,0.2425,0.2568,0.0000*
1,1,0.2425,0.2568,0.0000*
1,1,0.2425,-0.2568,0.0000*
1,1,0.2425,-0.2568,0.0000*
%
%ADD15ROUNDEDRECTD15*%
G04:AMPARAMS|DCode=16|XSize=0.7561mm|YSize=0.2425mm|CornerRadius=0.1212mm|HoleSize=0mm|Usage=FLASHONLY|Rotation=90.000|XOffset=0mm|YOffset=0mm|HoleType=Round|Shape=RoundedRectangle|*
%AMROUNDEDRECTD16*
21,1,0.7561,0.0000,0,0,90.0*
21,1,0.5136,0.2425,0,0,90.0*
1,1,0.2425,0.0000,0.2568*
1,1,0.2425,0.0000,-0.2568*
1,1,0.2425,0.0000,-0.2568*
1,1,0.2425,0.0000,0.2568*
%
%ADD16ROUNDEDRECTD16*%
%ADD17R,0.2425X0.7561*%
%TA.AperFunction,ComponentPad*%
%ADD27C,1.7000*%
%ADD28R,1.7000X1.7000*%
%TA.AperFunction,ViaPad*%
%ADD29C,0.7000*%
%TA.AperFunction,SMDPad,CuDef*%
%ADD33R,1.4500X1.0500*%
%ADD34R,0.6600X0.6200*%
%ADD35R,0.5500X0.6000*%
%ADD36R,0.6500X1.8000*%
%ADD37R,0.6200X0.6600*%
%ADD38R,0.6000X0.5500*%
D14*
X76200Y101600D02*
D03*
D15*
X52420Y86600D02*
D03*
Y91600D02*
D03*
Y96600D02*
D03*
Y101600D02*
D03*
Y106600D02*
D03*
Y111600D02*
D03*
Y116600D02*
D03*
X99980D02*
D03*
Y111600D02*
D03*
Y106600D02*
D03*
Y101600D02*
D03*
Y96600D02*
D03*
Y91600D02*
D03*
Y86600D02*
D03*
D16*
X61200Y125380D02*
D03*
X66200D02*
D03*
X71200D02*
D03*
X76200D02*
D03*
X81200D02*
D03*
X86200D02*
D03*
X91200D02*
D03*
Y77820D02*
D03*
X86200D02*
D03*
X81200D02*
D03*
X76200D02*
D03*
X71200D02*
D03*
X66200D02*
D03*
D17*
X61200D02*
D03*
D27*
X139700Y63500D02*
D03*
X12700Y12700D02*
D03*
Y38100D02*
D03*
Y88900D02*
D03*
Y139700D02*
D03*
Y165100D02*
D03*
Y114300D02*
D03*
Y63500D02*
D03*
X139700Y12700D02*
D03*
Y38100D02*
D03*
Y88900D02*
D03*
Y139700D02*
D03*
Y165100D02*
D03*
Y114300D02*
D03*
D28*
X12700Y190500D02*
D03*
X139700D02*
D03*
D29*
X60960Y116840D02*
D03*
Y109220D02*
D03*
Y101600D02*
D03*
X68580Y116840D02*
D03*
Y109220D02*
D03*
Y101600D02*
D03*
X76200Y116840D02*
D03*
Y109220D02*
D03*
Y101600D02*
D03*
X83820Y116840D02*
D03*
Y109220D02*
D03*
Y101600D02*
D03*
X60960Y93980D02*
D03*
X68580D02*
D03*
X76200D02*
D03*
X83820D02*
D03*
X91440Y116840D02*
D03*
Y109220D02*
D03*
Y101600D02*
D03*
Y93980D02*
D03*
X76200Y86360D02*
D03*
X83820D02*
D03*
X68580D02*
D03*
X60960D02*
D03*
X91440D02*
D03*
D33*
X38100Y114170D02*
D03*
Y129670D02*
D03*
Y89030D02*
D03*
Y73530D02*
D03*
D34*
X34200Y139700D02*
D03*
X42000D02*
D03*
X34200Y63500D02*
D03*
X42000D02*
D03*
X92620Y137160D02*
D03*
X100420D02*
D03*
D35*
X101600Y59750D02*
D03*
Y67250D02*
D03*
D36*
X60450Y17780D02*
D03*
X91950D02*
D03*
D37*
X81280Y59600D02*
D03*
Y67400D02*
D03*
X111760Y80100D02*
D03*
Y72300D02*
D03*
X91440Y59600D02*
D03*
Y67400D02*
D03*
D38*
X118050Y91440D02*
D03*
X110550D02*
D03*
X118050Y101600D02*
D03*
X110550D02*
D03*
X118050Y121920D02*
D03*
X110550D02*
D03*
X118050Y111760D02*
D03*
X110550D02*
D03*
%TF.MD5,5068189f6c60c0cf77095cc70e212601*%
M02*
