M48
;Layer_Color=9474304
;FILE_FORMAT=4:4
METRIC,LZ
;TYPE=PLATED
T1F00S00C0.3000
T2F00S00C1.1000
%
T01
X0005334Y0000762
Y0001397
Y0002159
Y0002794
X000508Y0006223
Y0006858
Y0007493
X0006096Y0008636
Y0009398
Y001016
Y0010922
Y0011684
X0006858
Y0010922
Y001016
X000762
Y0010922
Y0011684
X0008382
Y0010922
Y001016
Y0009398
X000762
X0006858
Y0008636
X000762
X0008382
X0009144
Y0009398
Y001016
Y0010922
Y0011684
X0008128Y0013716
X000508Y0013462
Y0014097
Y0012827
X0002794
Y0013462
Y0014097
Y0007493
Y0006858
Y0006223
X0009144Y0005334
X001016
X0009906Y0002794
Y0002159
Y0001397
Y0000762
X0012446Y0009144
Y0011176
Y0012192
X0009906Y0014732
T02
X000127Y000127
Y000381
Y000635
Y000889
Y001143
Y001397
X001397
Y001143
Y000889
Y000635
Y000381
Y000127
Y001651
Y001905
X000127
Y001651
M30
