%TF.GenerationSoftware,Altium Limited,Altium Designer,20.1.11 (218)*%
G04 Layer_Color=16711935*
%FSLAX44Y44*%
%MOMM*%
%TF.SameCoordinates,F7C42081-5D13-43C0-8CCF-545252F55ED2*%
%TF.FilePolarity,Negative*%
%TF.FileFunction,Soldermask,Bot*%
%TF.Part,Single*%
G01*
G75*
%TA.AperFunction,NonConductor*%
%ADD26R,4.5720X4.5720*%
%TA.AperFunction,ComponentPad*%
%ADD27C,1.7000*%
%ADD28R,1.7000X1.7000*%
%TA.AperFunction,ViaPad*%
%ADD29C,0.7000*%
D26*
X76200Y101600D02*
D03*
D27*
X139700Y63500D02*
D03*
X12700Y12700D02*
D03*
Y38100D02*
D03*
Y88900D02*
D03*
Y139700D02*
D03*
Y165100D02*
D03*
Y114300D02*
D03*
Y63500D02*
D03*
X139700Y12700D02*
D03*
Y38100D02*
D03*
Y88900D02*
D03*
Y139700D02*
D03*
Y165100D02*
D03*
Y114300D02*
D03*
D28*
X12700Y190500D02*
D03*
X139700D02*
D03*
D29*
X60960Y116840D02*
D03*
Y109220D02*
D03*
Y101600D02*
D03*
X68580Y116840D02*
D03*
Y109220D02*
D03*
Y101600D02*
D03*
X76200Y116840D02*
D03*
Y109220D02*
D03*
Y101600D02*
D03*
X83820Y116840D02*
D03*
Y109220D02*
D03*
Y101600D02*
D03*
X60960Y93980D02*
D03*
X68580D02*
D03*
X76200D02*
D03*
X83820D02*
D03*
X91440Y116840D02*
D03*
Y109220D02*
D03*
Y101600D02*
D03*
Y93980D02*
D03*
X76200Y86360D02*
D03*
X83820D02*
D03*
X68580D02*
D03*
X60960D02*
D03*
X91440D02*
D03*
%TF.MD5,ab296b13c9e27d4df63536e7a0b0fc99*%
M02*
