%TF.GenerationSoftware,Altium Limited,Altium Designer,20.1.11 (218)*%
G04 Layer_Physical_Order=1*
G04 Layer_Color=255*
%FSLAX44Y44*%
%MOMM*%
%TF.SameCoordinates,F7C42081-5D13-43C0-8CCF-545252F55ED2*%
%TF.FilePolarity,Positive*%
%TF.FileFunction,Copper,L1,Top,Signal*%
%TF.Part,Single*%
G01*
G75*
%TA.AperFunction,Conductor*%
%ADD10C,0.2500*%
%TA.AperFunction,SMDPad,CuDef*%
%ADD11R,1.3500X0.9500*%
%ADD12R,0.5600X0.5200*%
%ADD13R,0.4500X0.5000*%
%ADD14R,3.7000X3.7000*%
G04:AMPARAMS|DCode=15|XSize=0.2425mm|YSize=0.7561mm|CornerRadius=0.1212mm|HoleSize=0mm|Usage=FLASHONLY|Rotation=90.000|XOffset=0mm|YOffset=0mm|HoleType=Round|Shape=RoundedRectangle|*
%AMROUNDEDRECTD15*
21,1,0.2425,0.5136,0,0,90.0*
21,1,0.0000,0.7561,0,0,90.0*
1,1,0.2425,0.2568,0.0000*
1,1,0.2425,0.2568,0.0000*
1,1,0.2425,-0.2568,0.0000*
1,1,0.2425,-0.2568,0.0000*
%
%ADD15ROUNDEDRECTD15*%
G04:AMPARAMS|DCode=16|XSize=0.7561mm|YSize=0.2425mm|CornerRadius=0.1212mm|HoleSize=0mm|Usage=FLASHONLY|Rotation=90.000|XOffset=0mm|YOffset=0mm|HoleType=Round|Shape=RoundedRectangle|*
%AMROUNDEDRECTD16*
21,1,0.7561,0.0000,0,0,90.0*
21,1,0.5136,0.2425,0,0,90.0*
1,1,0.2425,0.0000,0.2568*
1,1,0.2425,0.0000,-0.2568*
1,1,0.2425,0.0000,-0.2568*
1,1,0.2425,0.0000,0.2568*
%
%ADD16ROUNDEDRECTD16*%
%ADD17R,0.2425X0.7561*%
%ADD18R,0.5500X1.7000*%
%ADD19R,0.5200X0.5600*%
%ADD20R,0.5000X0.4500*%
%TA.AperFunction,ComponentPad*%
%ADD21C,1.6000*%
%ADD22R,1.6000X1.6000*%
%TA.AperFunction,ViaPad*%
%ADD23C,0.6000*%
G36*
X130200Y200000D02*
Y193304D01*
X96600D01*
Y193337D01*
X92183Y192989D01*
X87874Y191955D01*
X83781Y190259D01*
X80003Y187944D01*
X76634Y185067D01*
X73756Y181697D01*
X71441Y177919D01*
X69745Y173826D01*
X68711Y169517D01*
X68363Y165100D01*
X68396D01*
Y132148D01*
X68168Y131818D01*
X66396Y130675D01*
X66200Y130714D01*
X65029Y132520D01*
Y153670D01*
X64913Y154255D01*
X64581Y154751D01*
X64085Y155083D01*
X63500Y155199D01*
X18650Y155199D01*
X18009Y157199D01*
X19476Y158324D01*
X20998Y160309D01*
X21955Y162620D01*
X22282Y165100D01*
X21955Y167580D01*
X20998Y169891D01*
X19476Y171875D01*
X17491Y173398D01*
X15180Y174356D01*
X12700Y174682D01*
X10220Y174356D01*
X7909Y173398D01*
X5925Y171875D01*
X4402Y169891D01*
X4039Y169015D01*
X2039Y169413D01*
Y201161D01*
X128681D01*
X130200Y200000D01*
D02*
G37*
G36*
X96600Y187696D02*
X130200D01*
Y181000D01*
X149200D01*
X150361Y179481D01*
Y169413D01*
X148361Y169015D01*
X147998Y169891D01*
X146475Y171875D01*
X144491Y173398D01*
X142180Y174356D01*
X139700Y174682D01*
X137220Y174356D01*
X134909Y173398D01*
X132924Y171875D01*
X131402Y169891D01*
X130444Y167580D01*
X130394Y167198D01*
X127715Y166555D01*
X123621Y164859D01*
X119843Y162544D01*
X117950Y160927D01*
X116500Y159721D01*
X116450Y159701D01*
X116450Y159701D01*
X116446Y159687D01*
X97312Y155693D01*
X97210Y155650D01*
X96841Y155601D01*
X94773Y154745D01*
X92998Y153382D01*
X92374Y152569D01*
X92154Y152367D01*
X85336Y143037D01*
X85235Y142819D01*
X85016Y142534D01*
X84999Y142493D01*
X83066Y141416D01*
X82506Y141504D01*
X81280Y141748D01*
X79524Y141399D01*
X78036Y140404D01*
X77041Y138916D01*
X76692Y137160D01*
X77041Y135404D01*
X78036Y133916D01*
X78476Y133621D01*
Y128199D01*
X78434Y127986D01*
Y125569D01*
X78396Y125380D01*
X78435Y125188D01*
Y122812D01*
X78645Y121754D01*
X79244Y120857D01*
X80142Y120257D01*
X81200Y120047D01*
X82258Y120257D01*
X83155Y120857D01*
X84244D01*
X85142Y120257D01*
X86200Y120047D01*
X87258Y120257D01*
X88155Y120857D01*
X89244D01*
X90142Y120257D01*
X91200Y120047D01*
X92258Y120257D01*
X93155Y120857D01*
X93755Y121754D01*
X93966Y122812D01*
Y125188D01*
X94004Y125380D01*
Y133060D01*
X96920D01*
Y141131D01*
X97216Y141516D01*
X97233Y141528D01*
X98540Y142835D01*
X99060Y142732D01*
X100816Y143081D01*
X102304Y144076D01*
X103299Y145564D01*
X103648Y147320D01*
X103299Y149076D01*
X103243Y149159D01*
X104156Y151393D01*
X117798Y154240D01*
X117933Y154298D01*
X118088Y154318D01*
X119365Y154847D01*
X120344Y155598D01*
X120463Y155678D01*
X120511Y155750D01*
X123145Y158000D01*
X126172Y159854D01*
X129451Y161213D01*
X130885Y161557D01*
X131402Y160309D01*
X132924Y158324D01*
X134909Y156802D01*
X137220Y155844D01*
X139700Y155518D01*
X142180Y155844D01*
X144491Y156802D01*
X146475Y158324D01*
X147998Y160309D01*
X148361Y161185D01*
X150361Y160787D01*
Y144013D01*
X148361Y143615D01*
X147998Y144491D01*
X146475Y146475D01*
X144491Y147998D01*
X142180Y148955D01*
X139700Y149282D01*
X137220Y148955D01*
X134909Y147998D01*
X132924Y146475D01*
X131402Y144491D01*
X130444Y142180D01*
X130118Y139700D01*
X130444Y137220D01*
X131402Y134909D01*
X132924Y132924D01*
X134909Y131402D01*
X137220Y130444D01*
X139700Y130118D01*
X142180Y130444D01*
X144491Y131402D01*
X146475Y132924D01*
X147998Y134909D01*
X148361Y135785D01*
X150361Y135387D01*
Y118613D01*
X148361Y118215D01*
X147998Y119091D01*
X146475Y121075D01*
X144491Y122598D01*
X142180Y123555D01*
X139700Y123882D01*
X137220Y123555D01*
X134909Y122598D01*
X132924Y121075D01*
X131402Y119091D01*
X130444Y116780D01*
X130118Y114300D01*
X130444Y111820D01*
X131402Y109509D01*
X132924Y107524D01*
X134909Y106002D01*
X137220Y105044D01*
X139700Y104718D01*
X142180Y105044D01*
X144491Y106002D01*
X146475Y107524D01*
X147998Y109509D01*
X148361Y110385D01*
X150361Y109987D01*
Y93213D01*
X148361Y92815D01*
X147998Y93691D01*
X146475Y95675D01*
X144491Y97198D01*
X142180Y98155D01*
X139700Y98482D01*
X137220Y98155D01*
X134909Y97198D01*
X132924Y95675D01*
X131402Y93691D01*
X130887Y92448D01*
X128807Y92653D01*
X128699Y93196D01*
X127704Y94684D01*
X126216Y95679D01*
X124460Y96028D01*
X124208Y95978D01*
X122101Y97428D01*
X122050Y97850D01*
X122050D01*
Y105350D01*
X107104D01*
X107023Y105407D01*
X107002Y106039D01*
X107492Y106886D01*
X108921Y108010D01*
X114550D01*
Y115510D01*
X112570D01*
X111921Y116170D01*
X112760Y118170D01*
X121973D01*
X122704Y117681D01*
X124460Y117332D01*
X126216Y117681D01*
X127704Y118676D01*
X128699Y120164D01*
X129048Y121920D01*
X128699Y123676D01*
X127704Y125164D01*
X126216Y126159D01*
X124460Y126508D01*
X122704Y126159D01*
X121973Y125670D01*
X106550D01*
Y121932D01*
X104935Y120693D01*
X102545Y119703D01*
X100263Y119402D01*
X99980Y119430D01*
Y119404D01*
X99788Y119366D01*
X97412D01*
X96354Y119155D01*
X95457Y118555D01*
X94857Y117658D01*
X94647Y116600D01*
X94857Y115542D01*
X95457Y114644D01*
X96354Y114045D01*
X97412Y113834D01*
X99788D01*
X99980Y113796D01*
Y113775D01*
X100282Y113805D01*
X102847Y113467D01*
X105519Y112361D01*
X106550Y111570D01*
Y109794D01*
X106550Y109782D01*
X106550Y109782D01*
X106550Y109093D01*
X104550Y108486D01*
X104504Y108555D01*
X103607Y109155D01*
X102548Y109366D01*
X97412D01*
X96354Y109155D01*
X95457Y108555D01*
X94857Y107658D01*
X94647Y106600D01*
X94857Y105542D01*
X95457Y104644D01*
Y103555D01*
X94857Y102658D01*
X94647Y101600D01*
X94857Y100542D01*
X95457Y99644D01*
Y98555D01*
X94857Y97658D01*
X94647Y96600D01*
X94857Y95542D01*
X95293Y94100D01*
X94857Y92658D01*
X94647Y91600D01*
X94857Y90542D01*
X95457Y89644D01*
Y88555D01*
X94857Y87658D01*
X94647Y86600D01*
X94857Y85542D01*
X95457Y84644D01*
X96354Y84045D01*
X97412Y83834D01*
X99788D01*
X99980Y83796D01*
X105260D01*
X105324Y83809D01*
X106684Y83538D01*
X107660Y82886D01*
Y75800D01*
X115860D01*
Y84400D01*
X113961D01*
X112959Y85962D01*
X113848Y87690D01*
X121973D01*
X122704Y87201D01*
X124460Y86852D01*
X126216Y87201D01*
X127704Y88196D01*
X128196Y88932D01*
X128364Y88929D01*
X130194Y88322D01*
X130444Y86420D01*
X131402Y84109D01*
X132924Y82125D01*
X134909Y80602D01*
X137220Y79644D01*
X139700Y79318D01*
X142180Y79644D01*
X144491Y80602D01*
X146475Y82125D01*
X147998Y84109D01*
X148361Y84985D01*
X150361Y84587D01*
Y67813D01*
X148361Y67415D01*
X147998Y68291D01*
X146475Y70275D01*
X144491Y71798D01*
X142180Y72755D01*
X139700Y73082D01*
X137220Y72755D01*
X134909Y71798D01*
X132924Y70275D01*
X131402Y68291D01*
X130444Y65980D01*
X130118Y63500D01*
X130444Y61020D01*
X131402Y58709D01*
X132924Y56725D01*
X134909Y55202D01*
X137220Y54244D01*
X139700Y53918D01*
X142180Y54244D01*
X144491Y55202D01*
X146475Y56725D01*
X147998Y58709D01*
X148361Y59585D01*
X150361Y59187D01*
Y42413D01*
X148361Y42015D01*
X147998Y42891D01*
X146475Y44875D01*
X144491Y46398D01*
X142180Y47355D01*
X139700Y47682D01*
X137220Y47355D01*
X134909Y46398D01*
X132924Y44875D01*
X131402Y42891D01*
X130444Y40580D01*
X130118Y38100D01*
X130444Y35620D01*
X131402Y33309D01*
X132924Y31325D01*
X134909Y29802D01*
X137220Y28844D01*
X139700Y28518D01*
X142180Y28844D01*
X144491Y29802D01*
X146475Y31325D01*
X147998Y33309D01*
X148361Y34185D01*
X150361Y33787D01*
Y17013D01*
X148361Y16615D01*
X147998Y17491D01*
X146475Y19476D01*
X144491Y20998D01*
X142180Y21955D01*
X139700Y22282D01*
X137220Y21955D01*
X134909Y20998D01*
X132924Y19476D01*
X131402Y17491D01*
X130642Y15657D01*
X129589Y15796D01*
X127268Y16757D01*
X125275Y18286D01*
X123745Y20280D01*
X122784Y22601D01*
X122710Y23163D01*
X122502Y25077D01*
X122504Y25092D01*
X122242Y28410D01*
X121465Y31646D01*
X120192Y34722D01*
X118452Y37560D01*
X116296Y40085D01*
X116315Y40104D01*
X116318Y40107D01*
X116315Y40112D01*
X114825Y41334D01*
X114813Y41344D01*
X114811Y41345D01*
X113254Y42623D01*
X109762Y44490D01*
X105974Y45639D01*
X102034Y46027D01*
Y45984D01*
X81280D01*
X81236Y45975D01*
X78882Y46207D01*
X76577Y46906D01*
X74453Y48042D01*
X72590Y49570D01*
X71062Y51432D01*
X69926Y53557D01*
X69227Y55862D01*
X68995Y58216D01*
X69004Y58260D01*
Y77820D01*
X68966Y78012D01*
Y80388D01*
X68755Y81446D01*
X68155Y82343D01*
X67258Y82943D01*
X66200Y83153D01*
X65912Y83096D01*
X63912Y83100D01*
X63912Y83100D01*
X58488D01*
X57409Y84653D01*
Y85342D01*
X57543Y85542D01*
X57753Y86600D01*
X57543Y87658D01*
X57519Y87694D01*
X57319Y88370D01*
X57316Y88391D01*
X57310Y88401D01*
X56943Y89644D01*
X57543Y90542D01*
X57753Y91600D01*
X57543Y92658D01*
X56954Y93574D01*
X57613Y94665D01*
X57729Y95250D01*
Y96481D01*
X57753Y96600D01*
X57729Y96719D01*
Y97781D01*
X57719Y97834D01*
X57726Y97888D01*
X57661Y98125D01*
X57613Y98366D01*
X57576Y98437D01*
X57569Y98463D01*
X56943Y99644D01*
X57543Y100542D01*
X57753Y101600D01*
X57543Y102658D01*
X56943Y103555D01*
X57293Y104513D01*
X57337Y104733D01*
X57402Y104948D01*
X57394Y105023D01*
X57409Y105098D01*
Y105342D01*
X57543Y105542D01*
X57753Y106600D01*
X57543Y107658D01*
X57409Y107858D01*
Y107950D01*
X57293Y108535D01*
X56943Y109644D01*
X57543Y110542D01*
X57753Y111600D01*
X57543Y112658D01*
X56943Y113555D01*
X57293Y114750D01*
X57299Y114781D01*
X57316Y114809D01*
X57357Y115072D01*
X57409Y115335D01*
Y115342D01*
X57543Y115542D01*
X57753Y116600D01*
X57543Y117658D01*
X57409Y117858D01*
Y118569D01*
X58102Y119818D01*
X60142Y120257D01*
X61200Y120047D01*
X62258Y120257D01*
X62294Y120281D01*
X62970Y120481D01*
X62991Y120484D01*
X63001Y120490D01*
X64244Y120857D01*
X65142Y120257D01*
X66200Y120047D01*
X67258Y120257D01*
X68155Y120857D01*
X69244D01*
X70142Y120257D01*
X71200Y120047D01*
X72258Y120257D01*
X73155Y120857D01*
X73755Y121754D01*
X73966Y122812D01*
Y125188D01*
X74004Y125380D01*
Y165100D01*
X73987Y165185D01*
X74259Y168638D01*
X75087Y172090D01*
X76446Y175369D01*
X78300Y178396D01*
X80605Y181095D01*
X83304Y183400D01*
X86331Y185254D01*
X89610Y186613D01*
X93062Y187441D01*
X96515Y187713D01*
X96600Y187696D01*
D02*
G37*
G36*
X37700Y143800D02*
Y135600D01*
X38100D01*
Y134620D01*
X45720D01*
Y124460D01*
X25400D01*
Y144780D01*
X37000D01*
X37700Y143800D01*
D02*
G37*
G36*
X63500Y128278D02*
X63435Y127948D01*
Y122812D01*
X62465Y121920D01*
X58420D01*
Y144780D01*
X58420Y144780D01*
X57789Y145352D01*
X57067Y145835D01*
X57028Y145928D01*
X56762Y146038D01*
X56376Y146296D01*
X54805Y146947D01*
X53138Y147278D01*
X52288Y147320D01*
X24130Y147320D01*
Y145634D01*
X23776Y144780D01*
Y142838D01*
X23701Y142726D01*
X23352Y140970D01*
X23701Y139214D01*
X23776Y139101D01*
Y136489D01*
X23701Y136376D01*
X23352Y134620D01*
X23701Y132864D01*
X23776Y132752D01*
Y130139D01*
X23701Y130026D01*
X23352Y128270D01*
X22082Y128270D01*
X2039Y128270D01*
Y153670D01*
X63500Y153670D01*
Y128278D01*
D02*
G37*
G36*
X55880Y115335D02*
X54988Y114366D01*
X52612D01*
X52420Y114404D01*
X48260D01*
Y135890D01*
X46574D01*
X45720Y136244D01*
X39457D01*
X39370Y136454D01*
Y144780D01*
X55880D01*
Y115335D01*
D02*
G37*
G36*
X23776Y124460D02*
X24252Y123312D01*
X25400Y122836D01*
X25400Y107950D01*
X29850D01*
Y107920D01*
X46350D01*
Y107950D01*
X55880D01*
Y105098D01*
X54988Y104366D01*
X49852D01*
X48793Y104155D01*
X47896Y103555D01*
X47438Y102870D01*
X2039Y102870D01*
Y125730D01*
X23776Y125730D01*
Y124460D01*
D02*
G37*
G36*
X47896Y99644D02*
X48793Y99045D01*
X49852Y98834D01*
X54988D01*
X56200Y97781D01*
Y95250D01*
X46350D01*
Y95280D01*
X29850D01*
Y95250D01*
X25901D01*
X25901Y80364D01*
X25400D01*
X24252Y79888D01*
X23776Y78740D01*
Y77470D01*
X2039D01*
Y100330D01*
X47438D01*
X47896Y99644D01*
D02*
G37*
G36*
X55880Y87865D02*
Y58420D01*
X39370D01*
Y66746D01*
X39457Y66956D01*
X45720D01*
X46574Y67310D01*
X48260D01*
Y88796D01*
X52420D01*
X52612Y88834D01*
X54988D01*
X55880Y87865D01*
D02*
G37*
G36*
X45720Y68580D02*
X38100D01*
Y67600D01*
X37700D01*
Y59400D01*
X37000Y58420D01*
X25400D01*
Y78740D01*
X45720D01*
Y68580D01*
D02*
G37*
G36*
X63435Y80388D02*
Y78012D01*
X63396Y77820D01*
Y58260D01*
X63364D01*
X63500Y56877D01*
Y49530D01*
X2039Y49530D01*
Y74930D01*
X23352Y74930D01*
X23701Y73174D01*
X23776Y73061D01*
Y70448D01*
X23701Y70336D01*
X23352Y68580D01*
X23701Y66824D01*
X23776Y66712D01*
Y64099D01*
X23701Y63986D01*
X23352Y62230D01*
X23701Y60474D01*
X23776Y60361D01*
Y58420D01*
X24130Y57566D01*
Y55880D01*
X52288D01*
X53138Y55922D01*
X54805Y56253D01*
X56376Y56904D01*
X56761Y57161D01*
X57028Y57272D01*
X57067Y57366D01*
X57789Y57848D01*
X58420Y58420D01*
Y81280D01*
X62465D01*
X63435Y80388D01*
D02*
G37*
G36*
X66040Y5080D02*
X48260D01*
Y30480D01*
X66040D01*
Y5080D01*
D02*
G37*
G36*
X66614Y48025D02*
X68611Y45591D01*
X71326Y43363D01*
X74424Y41708D01*
X77785Y40688D01*
X81280Y40344D01*
Y40376D01*
X102034D01*
X102114Y40392D01*
X104876Y40120D01*
X107609Y39291D01*
X110128Y37945D01*
X110839Y37361D01*
X112322Y36113D01*
X112322Y36112D01*
X112323Y36112D01*
X113574Y34632D01*
X114281Y33771D01*
X115724Y31070D01*
X116613Y28139D01*
X116724Y27018D01*
X116867Y25076D01*
X116867D01*
X117157Y22123D01*
X118023Y19269D01*
X119429Y16639D01*
X121321Y14333D01*
X123627Y12441D01*
X126257Y11035D01*
X129112Y10169D01*
X130523Y10030D01*
X131402Y7909D01*
X132924Y5925D01*
X134909Y4402D01*
X135785Y4039D01*
X135387Y2039D01*
X67789D01*
X67196Y3780D01*
X67148Y4039D01*
X67453Y4495D01*
X67569Y5080D01*
Y30480D01*
X67453Y31065D01*
X67121Y31561D01*
X66625Y31893D01*
X66040Y32009D01*
X55349D01*
X55096Y32179D01*
X53340Y32528D01*
X51584Y32179D01*
X51330Y32009D01*
X48260D01*
X47675Y31893D01*
X47179Y31561D01*
X46847Y31065D01*
X46731Y30480D01*
Y5080D01*
X46847Y4495D01*
X47151Y4039D01*
X47104Y3780D01*
X46511Y2039D01*
X17013D01*
X16615Y4039D01*
X17491Y4402D01*
X19476Y5925D01*
X20998Y7909D01*
X21955Y10220D01*
X22282Y12700D01*
X21955Y15180D01*
X20998Y17491D01*
X19476Y19476D01*
X17491Y20998D01*
X15180Y21955D01*
X12700Y22282D01*
X10220Y21955D01*
X7909Y20998D01*
X5925Y19476D01*
X4402Y17491D01*
X4039Y16615D01*
X2039Y17013D01*
Y48001D01*
X63500Y48001D01*
X64085Y48117D01*
X64182Y48182D01*
X65503Y48257D01*
X66614Y48025D01*
D02*
G37*
%LPC*%
G36*
X91200Y83153D02*
X90142Y82943D01*
X89244Y82343D01*
X88155D01*
X87258Y82943D01*
X86200Y83153D01*
X85142Y82943D01*
X84244Y82343D01*
X83155D01*
X82258Y82943D01*
X81200Y83153D01*
X80142Y82943D01*
X79244Y82343D01*
X78155D01*
X77258Y82943D01*
X76200Y83153D01*
X75142Y82943D01*
X74244Y82343D01*
X73645Y81446D01*
X73435Y80388D01*
Y78074D01*
X73398Y77920D01*
X73130Y70398D01*
X73146Y70299D01*
X73145Y70296D01*
X73126Y70200D01*
Y64600D01*
X73145Y64504D01*
X73322Y63164D01*
X73876Y61826D01*
X74757Y60677D01*
X75403Y60182D01*
X75629Y59959D01*
X77180Y58940D01*
Y55300D01*
X85203D01*
X87114Y54658D01*
X86852Y53340D01*
X87201Y51584D01*
X88196Y50096D01*
X89684Y49101D01*
X91440Y48752D01*
X93196Y49101D01*
X94684Y50096D01*
X95409Y51180D01*
X96237Y51351D01*
X96803D01*
X97631Y51180D01*
X98356Y50096D01*
X99844Y49101D01*
X101600Y48752D01*
X103356Y49101D01*
X104844Y50096D01*
X105839Y51584D01*
X106188Y53340D01*
X105839Y55096D01*
X105350Y55827D01*
Y63250D01*
Y71250D01*
X103780D01*
X103408Y72476D01*
X102187Y74761D01*
X100543Y76763D01*
X98541Y78406D01*
X96257Y79627D01*
X93966Y80322D01*
Y80388D01*
X93755Y81446D01*
X93155Y82343D01*
X92258Y82943D01*
X91200Y83153D01*
D02*
G37*
%LPD*%
D10*
X136441Y165100D02*
G03*
X118480Y157661I0J-25400D01*
G01*
X117225Y156985D02*
G03*
X118480Y157661I-508J2448D01*
G01*
X97885Y152949D02*
G03*
X94417Y150712I1175J-5629D01*
G01*
X87600Y141382D02*
G03*
X87070Y139801I2220J-1622D01*
G01*
X87015Y136742D02*
G03*
X87029Y137083I-5735J418D01*
G01*
X75932Y70298D02*
G03*
X75930Y70200I2748J-98D01*
G01*
Y64600D02*
G03*
X77169Y62302I2750J0D01*
G01*
X96600Y190500D02*
G03*
X71200Y165100I0J-25400D01*
G01*
X66200Y58260D02*
G03*
X81280Y43180I15080J0D01*
G01*
X114305Y38095D02*
G03*
X102034Y43180I-12271J-12265D01*
G01*
X119688Y25079D02*
G03*
X132080Y12700I12392J13D01*
G01*
X119688Y25079D02*
G03*
X114305Y38095I-18397J13D01*
G01*
X99980Y116600D02*
G03*
X108942Y120312I0J12674D01*
G01*
X109761Y112549D02*
G03*
X99980Y116600I-9781J-9781D01*
G01*
Y96600D02*
G03*
X109488Y100538I0J13446D01*
G01*
X110550Y91440D02*
G03*
X110164Y91600I-386J-386D01*
G01*
X101600Y67420D02*
G03*
X91200Y77820I-10400J0D01*
G01*
X101480Y67539D02*
G03*
X101480Y67540I-290J-289D01*
G01*
X101600Y67250D02*
G03*
X101480Y67539I-410J0D01*
G01*
X111760Y80100D02*
G03*
X105260Y86600I-6500J0D01*
G01*
X86200Y77820D02*
G03*
X89863Y68977I12505J0D01*
G01*
X95250Y143510D02*
G03*
X92620Y137160I6350J-6350D01*
G01*
D02*
G03*
X91200Y133732I3428J-3428D01*
G01*
X92980Y118380D02*
G03*
X100420Y136341I-17960J17960D01*
G01*
X136441Y165100D02*
X139700D01*
X118480Y157661D02*
Y157661D01*
X97885Y152949D02*
X117225Y156985D01*
X87600Y141382D02*
X94417Y150712D01*
X87029Y137083D02*
X87070Y139801D01*
X86200Y125380D02*
X87015Y136742D01*
X75932Y70298D02*
X76200Y77820D01*
X77169Y62302D02*
X81280Y59600D01*
X75930Y64600D02*
Y70200D01*
X118050Y91440D02*
X124460D01*
X118050D02*
Y101600D01*
X38100Y111630D02*
X38130Y111600D01*
X118050Y101600D02*
X118361Y101911D01*
X81280Y128028D02*
Y137160D01*
X81238Y127986D02*
X81280Y128028D01*
X81238Y125418D02*
Y127986D01*
X81200Y125380D02*
X81238Y125418D01*
X96600Y190500D02*
X139700D01*
X71200Y125380D02*
Y165100D01*
X81280Y43180D02*
X102034D01*
X66200Y58260D02*
Y77820D01*
X132080Y12700D02*
X139700D01*
X101600Y53340D02*
Y59750D01*
X91440Y53340D02*
Y59600D01*
X76200Y116840D02*
Y125380D01*
X118050Y111760D02*
X124460D01*
X118050Y121920D02*
X124460D01*
X109761Y112549D02*
X110550Y111760D01*
X108942Y120312D02*
X110550Y121920D01*
X109488Y100538D02*
X110550Y101600D01*
X99980Y91600D02*
X110164D01*
X101480Y67540D02*
X101480Y67539D01*
X99980Y86600D02*
X105260D01*
X101600Y67250D02*
Y67420D01*
X89863Y68977D02*
X91440Y67400D01*
X91200Y125380D02*
Y133732D01*
X95250Y143510D02*
X99060Y147320D01*
X91440Y116840D02*
X92980Y118380D01*
X100420Y136341D02*
Y137160D01*
X81200Y77820D02*
X81238Y77782D01*
Y67442D02*
Y77782D01*
Y67442D02*
X81280Y67400D01*
X100420Y137160D02*
X100620D01*
X71200Y77820D02*
Y86280D01*
X71120Y86360D02*
X71200Y86280D01*
X91600Y111600D02*
X99980D01*
X91440Y111760D02*
X91600Y111600D01*
X38130D02*
X52420D01*
X38130Y91600D02*
X52420D01*
X38100Y91570D02*
X38130Y91600D01*
D11*
X38100Y114170D02*
D03*
Y129670D02*
D03*
Y89030D02*
D03*
Y73530D02*
D03*
D12*
X34200Y139700D02*
D03*
X42000D02*
D03*
X34200Y63500D02*
D03*
X42000D02*
D03*
X92620Y137160D02*
D03*
X100420D02*
D03*
D13*
X101600Y59750D02*
D03*
Y67250D02*
D03*
D14*
X76200Y101600D02*
D03*
D15*
X52420Y86600D02*
D03*
Y91600D02*
D03*
Y96600D02*
D03*
Y101600D02*
D03*
Y106600D02*
D03*
Y111600D02*
D03*
Y116600D02*
D03*
X99980D02*
D03*
Y111600D02*
D03*
Y106600D02*
D03*
Y101600D02*
D03*
Y96600D02*
D03*
Y91600D02*
D03*
Y86600D02*
D03*
D16*
X61200Y125380D02*
D03*
X66200D02*
D03*
X71200D02*
D03*
X76200D02*
D03*
X81200D02*
D03*
X86200D02*
D03*
X91200D02*
D03*
Y77820D02*
D03*
X86200D02*
D03*
X81200D02*
D03*
X76200D02*
D03*
X71200D02*
D03*
X66200D02*
D03*
D17*
X61200D02*
D03*
D18*
X60450Y17780D02*
D03*
X91950D02*
D03*
D19*
X81280Y59600D02*
D03*
Y67400D02*
D03*
X111760Y80100D02*
D03*
Y72300D02*
D03*
X91440Y59600D02*
D03*
Y67400D02*
D03*
D20*
X118050Y91440D02*
D03*
X110550D02*
D03*
X118050Y101600D02*
D03*
X110550D02*
D03*
X118050Y121920D02*
D03*
X110550D02*
D03*
X118050Y111760D02*
D03*
X110550D02*
D03*
D21*
X139700Y63500D02*
D03*
X12700Y12700D02*
D03*
Y38100D02*
D03*
Y88900D02*
D03*
Y139700D02*
D03*
Y165100D02*
D03*
Y114300D02*
D03*
Y63500D02*
D03*
X139700Y12700D02*
D03*
Y38100D02*
D03*
Y88900D02*
D03*
Y139700D02*
D03*
Y165100D02*
D03*
Y114300D02*
D03*
D22*
X12700Y190500D02*
D03*
X139700D02*
D03*
D23*
X53340Y13970D02*
D03*
X60960Y116840D02*
D03*
Y109220D02*
D03*
Y101600D02*
D03*
X68580Y116840D02*
D03*
Y109220D02*
D03*
Y101600D02*
D03*
X76200Y116840D02*
D03*
Y109220D02*
D03*
Y101600D02*
D03*
X83820Y116840D02*
D03*
Y109220D02*
D03*
Y101600D02*
D03*
X60960Y93980D02*
D03*
X68580D02*
D03*
X76200D02*
D03*
X83820D02*
D03*
X91440Y116840D02*
D03*
Y109220D02*
D03*
Y101600D02*
D03*
Y93980D02*
D03*
X76200Y86360D02*
D03*
X83820D02*
D03*
X68580D02*
D03*
X60960D02*
D03*
X91440D02*
D03*
X99060Y13970D02*
D03*
Y21590D02*
D03*
X53340D02*
D03*
X50800Y68580D02*
D03*
Y62230D02*
D03*
X27940Y68580D02*
D03*
Y62230D02*
D03*
X50800Y134620D02*
D03*
Y140970D02*
D03*
X27940Y134620D02*
D03*
Y140970D02*
D03*
X124460Y91440D02*
D03*
X50800Y128270D02*
D03*
X27940D02*
D03*
X81280Y137160D02*
D03*
X101600Y53340D02*
D03*
X91440D02*
D03*
X99060Y27940D02*
D03*
X124460Y121920D02*
D03*
Y111760D02*
D03*
X99060Y147320D02*
D03*
Y7620D02*
D03*
X53340D02*
D03*
Y27940D02*
D03*
X50800Y74930D02*
D03*
X27940D02*
D03*
%TF.MD5,242bf993e8efc0e712728ee326e210fa*%
M02*
