%TF.GenerationSoftware,Altium Limited,Altium Designer,20.1.11 (218)*%
G04 Layer_Color=8421504*
%FSLAX44Y44*%
%MOMM*%
%TF.SameCoordinates,F7C42081-5D13-43C0-8CCF-545252F55ED2*%
%TF.FilePolarity,Positive*%
%TF.FileFunction,Paste,Top*%
%TF.Part,Single*%
G01*
G75*
%TA.AperFunction,SMDPad,CuDef*%
%ADD11R,1.3500X0.9500*%
%ADD12R,0.5600X0.5200*%
%ADD13R,0.4500X0.5000*%
G04:AMPARAMS|DCode=15|XSize=0.2425mm|YSize=0.7561mm|CornerRadius=0.1212mm|HoleSize=0mm|Usage=FLASHONLY|Rotation=90.000|XOffset=0mm|YOffset=0mm|HoleType=Round|Shape=RoundedRectangle|*
%AMROUNDEDRECTD15*
21,1,0.2425,0.5136,0,0,90.0*
21,1,0.0000,0.7561,0,0,90.0*
1,1,0.2425,0.2568,0.0000*
1,1,0.2425,0.2568,0.0000*
1,1,0.2425,-0.2568,0.0000*
1,1,0.2425,-0.2568,0.0000*
%
%ADD15ROUNDEDRECTD15*%
G04:AMPARAMS|DCode=16|XSize=0.7561mm|YSize=0.2425mm|CornerRadius=0.1212mm|HoleSize=0mm|Usage=FLASHONLY|Rotation=90.000|XOffset=0mm|YOffset=0mm|HoleType=Round|Shape=RoundedRectangle|*
%AMROUNDEDRECTD16*
21,1,0.7561,0.0000,0,0,90.0*
21,1,0.5136,0.2425,0,0,90.0*
1,1,0.2425,0.0000,0.2568*
1,1,0.2425,0.0000,-0.2568*
1,1,0.2425,0.0000,-0.2568*
1,1,0.2425,0.0000,0.2568*
%
%ADD16ROUNDEDRECTD16*%
%ADD17R,0.2425X0.7561*%
%ADD18R,0.5500X1.7000*%
%ADD19R,0.5200X0.5600*%
%ADD20R,0.5000X0.4500*%
%TA.AperFunction,NonConductor*%
%ADD32R,2.3401X2.3401*%
D11*
X38100Y114170D02*
D03*
Y129670D02*
D03*
Y89030D02*
D03*
Y73530D02*
D03*
D12*
X34200Y139700D02*
D03*
X42000D02*
D03*
X34200Y63500D02*
D03*
X42000D02*
D03*
X92620Y137160D02*
D03*
X100420D02*
D03*
D13*
X101600Y59750D02*
D03*
Y67250D02*
D03*
D15*
X52420Y86600D02*
D03*
Y91600D02*
D03*
Y96600D02*
D03*
Y101600D02*
D03*
Y106600D02*
D03*
Y111600D02*
D03*
Y116600D02*
D03*
X99980D02*
D03*
Y111600D02*
D03*
Y106600D02*
D03*
Y101600D02*
D03*
Y96600D02*
D03*
Y91600D02*
D03*
Y86600D02*
D03*
D16*
X61200Y125380D02*
D03*
X66200D02*
D03*
X71200D02*
D03*
X76200D02*
D03*
X81200D02*
D03*
X86200D02*
D03*
X91200D02*
D03*
Y77820D02*
D03*
X86200D02*
D03*
X81200D02*
D03*
X76200D02*
D03*
X71200D02*
D03*
X66200D02*
D03*
D17*
X61200D02*
D03*
D18*
X60450Y17780D02*
D03*
X91950D02*
D03*
D19*
X81280Y59600D02*
D03*
Y67400D02*
D03*
X111760Y80100D02*
D03*
Y72300D02*
D03*
X91440Y59600D02*
D03*
Y67400D02*
D03*
D20*
X118050Y91440D02*
D03*
X110550D02*
D03*
X118050Y101600D02*
D03*
X110550D02*
D03*
X118050Y121920D02*
D03*
X110550D02*
D03*
X118050Y111760D02*
D03*
X110550D02*
D03*
D32*
X76200Y101600D02*
D03*
%TF.MD5,fb046007215ae2abdfe9b219920c14e1*%
M02*
