%TF.GenerationSoftware,Altium Limited,Altium Designer,20.1.11 (218)*%
G04 Layer_Physical_Order=2*
G04 Layer_Color=36540*
%FSLAX44Y44*%
%MOMM*%
%TF.SameCoordinates,F7C42081-5D13-43C0-8CCF-545252F55ED2*%
%TF.FilePolarity,Positive*%
%TF.FileFunction,Copper,L2,Inr,Signal*%
%TF.Part,Single*%
G01*
G75*
%TA.AperFunction,ComponentPad*%
%ADD21C,1.6000*%
%ADD22R,1.6000X1.6000*%
%TA.AperFunction,ViaPad*%
%ADD23C,0.6000*%
G36*
X150361Y2039D02*
X2039D01*
Y201161D01*
X150361D01*
Y2039D01*
D02*
G37*
%LPC*%
G36*
X149200Y200000D02*
X130200D01*
Y181000D01*
X149200D01*
Y200000D01*
D02*
G37*
G36*
X139700Y174682D02*
X137220Y174356D01*
X134909Y173398D01*
X132924Y171875D01*
X131402Y169891D01*
X130444Y167580D01*
X130118Y165100D01*
X130444Y162620D01*
X131402Y160309D01*
X132924Y158324D01*
X134909Y156802D01*
X137220Y155844D01*
X139700Y155518D01*
X142180Y155844D01*
X144491Y156802D01*
X146475Y158324D01*
X147998Y160309D01*
X148955Y162620D01*
X149282Y165100D01*
X148955Y167580D01*
X147998Y169891D01*
X146475Y171875D01*
X144491Y173398D01*
X142180Y174356D01*
X139700Y174682D01*
D02*
G37*
G36*
X12700D02*
X10220Y174356D01*
X7909Y173398D01*
X5925Y171875D01*
X4402Y169891D01*
X3444Y167580D01*
X3118Y165100D01*
X3444Y162620D01*
X4402Y160309D01*
X5925Y158324D01*
X7909Y156802D01*
X10220Y155844D01*
X12700Y155518D01*
X15180Y155844D01*
X17491Y156802D01*
X19476Y158324D01*
X20998Y160309D01*
X21955Y162620D01*
X22282Y165100D01*
X21955Y167580D01*
X20998Y169891D01*
X19476Y171875D01*
X17491Y173398D01*
X15180Y174356D01*
X12700Y174682D01*
D02*
G37*
G36*
X99060Y151908D02*
X97304Y151559D01*
X95816Y150564D01*
X94821Y149076D01*
X94472Y147320D01*
X94821Y145564D01*
X95816Y144076D01*
X97304Y143081D01*
X99060Y142732D01*
X100816Y143081D01*
X102304Y144076D01*
X103299Y145564D01*
X103648Y147320D01*
X103299Y149076D01*
X102304Y150564D01*
X100816Y151559D01*
X99060Y151908D01*
D02*
G37*
G36*
X81280Y141748D02*
X79524Y141399D01*
X78036Y140404D01*
X77041Y138916D01*
X76692Y137160D01*
X77041Y135404D01*
X78036Y133916D01*
X79524Y132921D01*
X81280Y132572D01*
X83036Y132921D01*
X84524Y133916D01*
X85519Y135404D01*
X85868Y137160D01*
X85519Y138916D01*
X84524Y140404D01*
X83036Y141399D01*
X81280Y141748D01*
D02*
G37*
G36*
X139700Y149282D02*
X137220Y148955D01*
X134909Y147998D01*
X132924Y146475D01*
X131402Y144491D01*
X130444Y142180D01*
X130118Y139700D01*
X130444Y137220D01*
X131402Y134909D01*
X132924Y132924D01*
X134909Y131402D01*
X137220Y130444D01*
X139700Y130118D01*
X142180Y130444D01*
X144491Y131402D01*
X146475Y132924D01*
X147998Y134909D01*
X148955Y137220D01*
X149282Y139700D01*
X148955Y142180D01*
X147998Y144491D01*
X146475Y146475D01*
X144491Y147998D01*
X142180Y148955D01*
X139700Y149282D01*
D02*
G37*
G36*
X12700D02*
X10220Y148955D01*
X7909Y147998D01*
X5925Y146475D01*
X4402Y144491D01*
X3444Y142180D01*
X3118Y139700D01*
X3444Y137220D01*
X4402Y134909D01*
X5925Y132924D01*
X7909Y131402D01*
X10220Y130444D01*
X12700Y130118D01*
X15180Y130444D01*
X17491Y131402D01*
X19476Y132924D01*
X20998Y134909D01*
X21955Y137220D01*
X22282Y139700D01*
X21955Y142180D01*
X20998Y144491D01*
X19476Y146475D01*
X17491Y147998D01*
X15180Y148955D01*
X12700Y149282D01*
D02*
G37*
G36*
X50800Y145558D02*
X49044Y145209D01*
X47556Y144214D01*
X46561Y142726D01*
X46212Y140970D01*
X46561Y139214D01*
X47509Y137795D01*
X46561Y136376D01*
X46212Y134620D01*
X46561Y132864D01*
X47509Y131445D01*
X46561Y130026D01*
X46212Y128270D01*
X46561Y126514D01*
X47556Y125026D01*
X49044Y124031D01*
X50800Y123682D01*
X52556Y124031D01*
X54044Y125026D01*
X55039Y126514D01*
X55388Y128270D01*
X55039Y130026D01*
X54091Y131445D01*
X55039Y132864D01*
X55388Y134620D01*
X55039Y136376D01*
X54091Y137795D01*
X55039Y139214D01*
X55388Y140970D01*
X55039Y142726D01*
X54044Y144214D01*
X52556Y145209D01*
X50800Y145558D01*
D02*
G37*
G36*
X124460Y126508D02*
X122704Y126159D01*
X121216Y125164D01*
X120221Y123676D01*
X119872Y121920D01*
X120221Y120164D01*
X121216Y118676D01*
X122704Y117681D01*
X124460Y117332D01*
X126216Y117681D01*
X127704Y118676D01*
X128699Y120164D01*
X129048Y121920D01*
X128699Y123676D01*
X127704Y125164D01*
X126216Y126159D01*
X124460Y126508D01*
D02*
G37*
G36*
X139700Y123882D02*
X137220Y123555D01*
X134909Y122598D01*
X132924Y121075D01*
X131402Y119091D01*
X130444Y116780D01*
X130118Y114300D01*
X130444Y111820D01*
X131402Y109509D01*
X132924Y107524D01*
X134909Y106002D01*
X137220Y105044D01*
X139700Y104718D01*
X142180Y105044D01*
X144491Y106002D01*
X146475Y107524D01*
X147998Y109509D01*
X148955Y111820D01*
X149282Y114300D01*
X148955Y116780D01*
X147998Y119091D01*
X146475Y121075D01*
X144491Y122598D01*
X142180Y123555D01*
X139700Y123882D01*
D02*
G37*
G36*
X12700D02*
X10220Y123555D01*
X7909Y122598D01*
X5925Y121075D01*
X4402Y119091D01*
X3444Y116780D01*
X3118Y114300D01*
X3444Y111820D01*
X4402Y109509D01*
X5925Y107524D01*
X7909Y106002D01*
X10220Y105044D01*
X12700Y104718D01*
X15180Y105044D01*
X17491Y106002D01*
X19476Y107524D01*
X20998Y109509D01*
X21955Y111820D01*
X22282Y114300D01*
X21955Y116780D01*
X20998Y119091D01*
X19476Y121075D01*
X17491Y122598D01*
X15180Y123555D01*
X12700Y123882D01*
D02*
G37*
G36*
X124460Y96028D02*
X122704Y95679D01*
X121216Y94684D01*
X120221Y93196D01*
X119872Y91440D01*
X120221Y89684D01*
X121216Y88196D01*
X122704Y87201D01*
X124460Y86852D01*
X126216Y87201D01*
X127704Y88196D01*
X128699Y89684D01*
X129048Y91440D01*
X128699Y93196D01*
X127704Y94684D01*
X126216Y95679D01*
X124460Y96028D01*
D02*
G37*
G36*
X139700Y98482D02*
X137220Y98155D01*
X134909Y97198D01*
X132924Y95675D01*
X131402Y93691D01*
X130444Y91380D01*
X130118Y88900D01*
X130444Y86420D01*
X131402Y84109D01*
X132924Y82125D01*
X134909Y80602D01*
X137220Y79644D01*
X139700Y79318D01*
X142180Y79644D01*
X144491Y80602D01*
X146475Y82125D01*
X147998Y84109D01*
X148955Y86420D01*
X149282Y88900D01*
X148955Y91380D01*
X147998Y93691D01*
X146475Y95675D01*
X144491Y97198D01*
X142180Y98155D01*
X139700Y98482D01*
D02*
G37*
G36*
X12700D02*
X10220Y98155D01*
X7909Y97198D01*
X5925Y95675D01*
X4402Y93691D01*
X3444Y91380D01*
X3118Y88900D01*
X3444Y86420D01*
X4402Y84109D01*
X5925Y82125D01*
X7909Y80602D01*
X10220Y79644D01*
X12700Y79318D01*
X15180Y79644D01*
X17491Y80602D01*
X19476Y82125D01*
X20998Y84109D01*
X21955Y86420D01*
X22282Y88900D01*
X21955Y91380D01*
X20998Y93691D01*
X19476Y95675D01*
X17491Y97198D01*
X15180Y98155D01*
X12700Y98482D01*
D02*
G37*
G36*
X50800Y79518D02*
X49044Y79169D01*
X47556Y78174D01*
X46561Y76686D01*
X46212Y74930D01*
X46561Y73174D01*
X47509Y71755D01*
X46561Y70336D01*
X46212Y68580D01*
X46561Y66824D01*
X47509Y65405D01*
X46561Y63986D01*
X46212Y62230D01*
X46561Y60474D01*
X47556Y58986D01*
X49044Y57991D01*
X50800Y57642D01*
X52556Y57991D01*
X54044Y58986D01*
X55039Y60474D01*
X55388Y62230D01*
X55039Y63986D01*
X54091Y65405D01*
X55039Y66824D01*
X55388Y68580D01*
X55039Y70336D01*
X54091Y71755D01*
X55039Y73174D01*
X55388Y74930D01*
X55039Y76686D01*
X54044Y78174D01*
X52556Y79169D01*
X50800Y79518D01*
D02*
G37*
G36*
X139700Y73082D02*
X137220Y72755D01*
X134909Y71798D01*
X132924Y70275D01*
X131402Y68291D01*
X130444Y65980D01*
X130118Y63500D01*
X130444Y61020D01*
X131402Y58709D01*
X132924Y56725D01*
X134909Y55202D01*
X137220Y54244D01*
X139700Y53918D01*
X142180Y54244D01*
X144491Y55202D01*
X146475Y56725D01*
X147998Y58709D01*
X148955Y61020D01*
X149282Y63500D01*
X148955Y65980D01*
X147998Y68291D01*
X146475Y70275D01*
X144491Y71798D01*
X142180Y72755D01*
X139700Y73082D01*
D02*
G37*
G36*
X12700D02*
X10220Y72755D01*
X7909Y71798D01*
X5925Y70275D01*
X4402Y68291D01*
X3444Y65980D01*
X3118Y63500D01*
X3444Y61020D01*
X4402Y58709D01*
X5925Y56725D01*
X7909Y55202D01*
X10220Y54244D01*
X12700Y53918D01*
X15180Y54244D01*
X17491Y55202D01*
X19476Y56725D01*
X20998Y58709D01*
X21955Y61020D01*
X22282Y63500D01*
X21955Y65980D01*
X20998Y68291D01*
X19476Y70275D01*
X17491Y71798D01*
X15180Y72755D01*
X12700Y73082D01*
D02*
G37*
G36*
X101600Y57928D02*
X99844Y57579D01*
X98356Y56584D01*
X97361Y55096D01*
X97012Y53340D01*
X97361Y51584D01*
X98356Y50096D01*
X99844Y49101D01*
X101600Y48752D01*
X103356Y49101D01*
X104844Y50096D01*
X105839Y51584D01*
X106188Y53340D01*
X105839Y55096D01*
X104844Y56584D01*
X103356Y57579D01*
X101600Y57928D01*
D02*
G37*
G36*
X91440D02*
X89684Y57579D01*
X88196Y56584D01*
X87201Y55096D01*
X86852Y53340D01*
X87201Y51584D01*
X88196Y50096D01*
X89684Y49101D01*
X91440Y48752D01*
X93196Y49101D01*
X94684Y50096D01*
X95679Y51584D01*
X96028Y53340D01*
X95679Y55096D01*
X94684Y56584D01*
X93196Y57579D01*
X91440Y57928D01*
D02*
G37*
G36*
X139700Y47682D02*
X137220Y47355D01*
X134909Y46398D01*
X132924Y44875D01*
X131402Y42891D01*
X130444Y40580D01*
X130118Y38100D01*
X130444Y35620D01*
X131402Y33309D01*
X132924Y31325D01*
X134909Y29802D01*
X137220Y28844D01*
X139700Y28518D01*
X142180Y28844D01*
X144491Y29802D01*
X146475Y31325D01*
X147998Y33309D01*
X148955Y35620D01*
X149282Y38100D01*
X148955Y40580D01*
X147998Y42891D01*
X146475Y44875D01*
X144491Y46398D01*
X142180Y47355D01*
X139700Y47682D01*
D02*
G37*
G36*
Y22282D02*
X137220Y21955D01*
X134909Y20998D01*
X132924Y19476D01*
X131402Y17491D01*
X130444Y15180D01*
X130118Y12700D01*
X130444Y10220D01*
X131402Y7909D01*
X132924Y5925D01*
X134909Y4402D01*
X137220Y3444D01*
X139700Y3118D01*
X142180Y3444D01*
X144491Y4402D01*
X146475Y5925D01*
X147998Y7909D01*
X148955Y10220D01*
X149282Y12700D01*
X148955Y15180D01*
X147998Y17491D01*
X146475Y19476D01*
X144491Y20998D01*
X142180Y21955D01*
X139700Y22282D01*
D02*
G37*
G36*
X12700D02*
X10220Y21955D01*
X7909Y20998D01*
X5925Y19476D01*
X4402Y17491D01*
X3444Y15180D01*
X3118Y12700D01*
X3444Y10220D01*
X4402Y7909D01*
X5925Y5925D01*
X7909Y4402D01*
X10220Y3444D01*
X12700Y3118D01*
X15180Y3444D01*
X17491Y4402D01*
X19476Y5925D01*
X20998Y7909D01*
X21955Y10220D01*
X22282Y12700D01*
X21955Y15180D01*
X20998Y17491D01*
X19476Y19476D01*
X17491Y20998D01*
X15180Y21955D01*
X12700Y22282D01*
D02*
G37*
G36*
X53340Y32528D02*
X51584Y32179D01*
X50096Y31184D01*
X49101Y29696D01*
X48752Y27940D01*
X49101Y26184D01*
X50049Y24765D01*
X49101Y23346D01*
X48752Y21590D01*
X49101Y19834D01*
X50063Y18395D01*
X50194Y18121D01*
Y17439D01*
X50063Y17165D01*
X49101Y15726D01*
X48752Y13970D01*
X49101Y12214D01*
X50049Y10795D01*
X49101Y9376D01*
X48752Y7620D01*
X49101Y5864D01*
X50096Y4376D01*
X51584Y3381D01*
X53340Y3032D01*
X55096Y3381D01*
X56584Y4376D01*
X57579Y5864D01*
X57928Y7620D01*
X57579Y9376D01*
X56631Y10795D01*
X57579Y12214D01*
X57928Y13970D01*
X57579Y15726D01*
X56617Y17165D01*
X56486Y17439D01*
Y18121D01*
X56617Y18395D01*
X57579Y19834D01*
X57928Y21590D01*
X57579Y23346D01*
X56631Y24765D01*
X57579Y26184D01*
X57928Y27940D01*
X57579Y29696D01*
X56584Y31184D01*
X55096Y32179D01*
X53340Y32528D01*
D02*
G37*
%LPD*%
D21*
X139700Y63500D02*
D03*
X12700Y12700D02*
D03*
Y38100D02*
D03*
Y88900D02*
D03*
Y139700D02*
D03*
Y165100D02*
D03*
Y114300D02*
D03*
Y63500D02*
D03*
X139700Y12700D02*
D03*
Y38100D02*
D03*
Y88900D02*
D03*
Y139700D02*
D03*
Y165100D02*
D03*
Y114300D02*
D03*
D22*
X12700Y190500D02*
D03*
X139700D02*
D03*
D23*
X53340Y13970D02*
D03*
X60960Y116840D02*
D03*
Y109220D02*
D03*
Y101600D02*
D03*
X68580Y116840D02*
D03*
Y109220D02*
D03*
Y101600D02*
D03*
X76200Y116840D02*
D03*
Y109220D02*
D03*
Y101600D02*
D03*
X83820Y116840D02*
D03*
Y109220D02*
D03*
Y101600D02*
D03*
X60960Y93980D02*
D03*
X68580D02*
D03*
X76200D02*
D03*
X83820D02*
D03*
X91440Y116840D02*
D03*
Y109220D02*
D03*
Y101600D02*
D03*
Y93980D02*
D03*
X76200Y86360D02*
D03*
X83820D02*
D03*
X68580D02*
D03*
X60960D02*
D03*
X91440D02*
D03*
X99060Y13970D02*
D03*
Y21590D02*
D03*
X53340D02*
D03*
X50800Y68580D02*
D03*
Y62230D02*
D03*
X27940Y68580D02*
D03*
Y62230D02*
D03*
X50800Y134620D02*
D03*
Y140970D02*
D03*
X27940Y134620D02*
D03*
Y140970D02*
D03*
X124460Y91440D02*
D03*
X50800Y128270D02*
D03*
X27940D02*
D03*
X81280Y137160D02*
D03*
X101600Y53340D02*
D03*
X91440D02*
D03*
X99060Y27940D02*
D03*
X124460Y121920D02*
D03*
Y111760D02*
D03*
X99060Y147320D02*
D03*
Y7620D02*
D03*
X53340D02*
D03*
Y27940D02*
D03*
X50800Y74930D02*
D03*
X27940D02*
D03*
%TF.MD5,71dd71dea887806b6315363c040cb9ae*%
M02*
