%TF.GenerationSoftware,Altium Limited,Altium Designer,20.1.11 (218)*%
G04 Layer_Color=32896*
%FSLAX45Y45*%
%MOMM*%
%TF.SameCoordinates,8684D80F-3192-4470-AB3D-773AF577FA96*%
%TF.FilePolarity,Positive*%
%TF.FileFunction,Legend,Bot*%
%TF.Part,Single*%
G01*
G75*
%TA.AperFunction,NonConductor*%
%ADD24C,0.10000*%
%ADD25C,0.25400*%
D24*
X1183800Y377484D02*
Y352492D01*
X1175469Y344161D01*
X1167139Y352492D01*
X1158808Y344161D01*
X1150478Y352492D01*
Y377484D01*
X1133816D02*
Y352492D01*
X1125486Y344161D01*
X1117155Y352492D01*
X1108825Y344161D01*
X1100494Y352492D01*
Y377484D01*
X1083833D02*
Y352492D01*
X1075502Y344161D01*
X1067172Y352492D01*
X1058841Y344161D01*
X1050510Y352492D01*
Y377484D01*
X1033849Y344161D02*
Y352492D01*
X1025518D01*
Y344161D01*
X1033849D01*
X992196D02*
X975535D01*
X983865D01*
Y394145D01*
X992196D01*
X942212Y385814D02*
Y377484D01*
X950543D01*
X933882D01*
X942212D01*
Y352492D01*
X933882Y344161D01*
X908889Y377484D02*
Y352492D01*
X900559Y344161D01*
X875567D01*
Y335830D01*
X883898Y327500D01*
X892228D01*
X875567Y344161D02*
Y377484D01*
X858906Y344161D02*
Y352492D01*
X850575D01*
Y344161D01*
X858906D01*
X817253D02*
Y377484D01*
X808922D01*
X800591Y369153D01*
Y344161D01*
Y369153D01*
X792261Y377484D01*
X783930Y369153D01*
Y344161D01*
X742277D02*
X758938D01*
X767269Y352492D01*
Y369153D01*
X758938Y377484D01*
X742277D01*
X733946Y369153D01*
Y360822D01*
X767269D01*
X1201278Y474714D02*
X1209608Y483045D01*
X1226269D01*
X1234600Y474714D01*
Y466384D01*
X1226269Y458053D01*
X1209608D01*
X1201278Y449722D01*
Y441392D01*
X1209608Y433061D01*
X1226269D01*
X1234600Y441392D01*
X1184616Y433061D02*
X1167955D01*
X1176286D01*
Y466384D01*
X1184616D01*
X1142963Y433061D02*
X1126302D01*
X1134632D01*
Y483045D01*
X1142963D01*
X1076318Y433061D02*
X1092979D01*
X1101310Y441392D01*
Y458053D01*
X1092979Y466384D01*
X1076318D01*
X1067987Y458053D01*
Y449722D01*
X1101310D01*
X1051326Y433061D02*
Y466384D01*
X1026334D01*
X1018004Y458053D01*
Y433061D01*
X993012Y474714D02*
Y466384D01*
X1001343D01*
X984682D01*
X993012D01*
Y441392D01*
X984682Y433061D01*
X959689Y483045D02*
Y433061D01*
X934698D01*
X926367Y441392D01*
Y449722D01*
X934698Y458053D01*
X959689D01*
X934698D01*
X926367Y466384D01*
Y474714D01*
X934698Y483045D01*
X959689D01*
X901375Y433061D02*
X884714D01*
X876383Y441392D01*
Y458053D01*
X884714Y466384D01*
X901375D01*
X909706Y458053D01*
Y441392D01*
X901375Y433061D01*
X851391Y474714D02*
Y466384D01*
X859722D01*
X843061D01*
X851391D01*
Y441392D01*
X843061Y433061D01*
X784746Y474714D02*
X793077Y483045D01*
X809738D01*
X818069Y474714D01*
Y466384D01*
X809738Y458053D01*
X793077D01*
X784746Y449722D01*
Y441392D01*
X793077Y433061D01*
X809738D01*
X818069Y441392D01*
X759755Y474714D02*
Y466384D01*
X768085D01*
X751424D01*
X759755D01*
Y441392D01*
X751424Y433061D01*
X701440D02*
X718101D01*
X726432Y441392D01*
Y458053D01*
X718101Y466384D01*
X701440D01*
X693110Y458053D01*
Y449722D01*
X726432D01*
X676448Y416400D02*
Y466384D01*
X651457D01*
X643126Y458053D01*
Y441392D01*
X651457Y433061D01*
X676448D01*
D25*
X419100Y176168D02*
Y109523D01*
X385777Y76200D01*
X352455Y109523D01*
Y176168D01*
X319132Y76200D02*
Y176168D01*
X285810Y142845D01*
X252487Y176168D01*
Y76200D01*
X441355Y413506D02*
X458016Y430168D01*
X491339D01*
X508000Y413506D01*
Y346861D01*
X491339Y330200D01*
X458016D01*
X441355Y346861D01*
Y380184D01*
X474677D01*
X408032Y330200D02*
Y430168D01*
X341387Y330200D01*
Y430168D01*
X308064D02*
Y330200D01*
X258081D01*
X241419Y346861D01*
Y413506D01*
X258081Y430168D01*
X308064D01*
X458016Y671468D02*
X491339D01*
X508000Y654806D01*
Y588161D01*
X491339Y571500D01*
X458016D01*
X441355Y588161D01*
Y654806D01*
X458016Y671468D01*
X408032D02*
Y571500D01*
X358048D01*
X341387Y588161D01*
Y604823D01*
X358048Y621484D01*
X408032D01*
X358048D01*
X341387Y638145D01*
Y654806D01*
X358048Y671468D01*
X408032D01*
X241419Y571500D02*
X308064D01*
X241419Y638145D01*
Y654806D01*
X258081Y671468D01*
X291403D01*
X308064Y654806D01*
X419916Y938168D02*
X453239D01*
X469900Y921506D01*
Y854861D01*
X453239Y838200D01*
X419916D01*
X403255Y854861D01*
Y921506D01*
X419916Y938168D01*
X369932D02*
Y838200D01*
X319948D01*
X303287Y854861D01*
Y871523D01*
X319948Y888184D01*
X369932D01*
X319948D01*
X303287Y904845D01*
Y921506D01*
X319948Y938168D01*
X369932D01*
X269964Y838200D02*
X236642D01*
X253303D01*
Y938168D01*
X269964Y921506D01*
X419916Y1179468D02*
X453239D01*
X469900Y1162806D01*
Y1096161D01*
X453239Y1079500D01*
X419916D01*
X403255Y1096161D01*
Y1162806D01*
X419916Y1179468D01*
X369932Y1079500D02*
Y1146145D01*
X336610Y1179468D01*
X303287Y1146145D01*
Y1079500D01*
Y1129484D01*
X369932D01*
X269964Y1079500D02*
X236642D01*
X253303D01*
Y1179468D01*
X269964Y1162806D01*
X458016Y1446168D02*
X491339D01*
X508000Y1429506D01*
Y1362861D01*
X491339Y1346200D01*
X458016D01*
X441355Y1362861D01*
Y1429506D01*
X458016Y1446168D01*
X408032Y1346200D02*
Y1412845D01*
X374710Y1446168D01*
X341387Y1412845D01*
Y1346200D01*
Y1396184D01*
X408032D01*
X241419Y1346200D02*
X308064D01*
X241419Y1412845D01*
Y1429506D01*
X258081Y1446168D01*
X291403D01*
X308064Y1429506D01*
X508000Y1700168D02*
Y1633523D01*
X474677Y1600200D01*
X441355Y1633523D01*
Y1700168D01*
X408032D02*
X374710D01*
X391371D01*
Y1600200D01*
X408032D01*
X374710D01*
X274742Y1700168D02*
X308064D01*
X324726Y1683506D01*
Y1616861D01*
X308064Y1600200D01*
X274742D01*
X258081Y1616861D01*
Y1683506D01*
X274742Y1700168D01*
X454055Y1937506D02*
X470716Y1954168D01*
X504039D01*
X520700Y1937506D01*
Y1870861D01*
X504039Y1854200D01*
X470716D01*
X454055Y1870861D01*
Y1904184D01*
X487377D01*
X420732Y1854200D02*
Y1954168D01*
X354087Y1854200D01*
Y1954168D01*
X320764D02*
Y1854200D01*
X270781D01*
X254119Y1870861D01*
Y1937506D01*
X270781Y1954168D01*
X320764D01*
X1216055Y163468D02*
X1282700D01*
Y63500D01*
X1216055D01*
X1282700Y113484D02*
X1249377D01*
X1182732Y63500D02*
Y163468D01*
X1116087Y63500D01*
Y163468D01*
X1282700Y925468D02*
Y858823D01*
X1249377Y825500D01*
X1216055Y858823D01*
Y925468D01*
X1182732Y825500D02*
Y925468D01*
X1132748D01*
X1116087Y908806D01*
Y875484D01*
X1132748Y858823D01*
X1182732D01*
X1149410D02*
X1116087Y825500D01*
X1216055Y1670806D02*
X1232716Y1687468D01*
X1266039D01*
X1282700Y1670806D01*
Y1654145D01*
X1266039Y1637484D01*
X1232716D01*
X1216055Y1620823D01*
Y1604161D01*
X1232716Y1587500D01*
X1266039D01*
X1282700Y1604161D01*
X1182732Y1687468D02*
X1116087D01*
X1149410D01*
Y1587500D01*
X1016119Y1687468D02*
X1082764D01*
Y1587500D01*
X1016119D01*
X1082764Y1637484D02*
X1049442D01*
X982797Y1587500D02*
Y1687468D01*
X932813D01*
X916152Y1670806D01*
Y1637484D01*
X932813Y1620823D01*
X982797D01*
X1282700Y1941468D02*
Y1841500D01*
X1232716D01*
X1216055Y1858161D01*
Y1924806D01*
X1232716Y1941468D01*
X1282700D01*
X1182732D02*
X1149410D01*
X1166071D01*
Y1841500D01*
X1182732D01*
X1149410D01*
X1099426D02*
Y1941468D01*
X1049442D01*
X1032781Y1924806D01*
Y1891484D01*
X1049442Y1874823D01*
X1099426D01*
X1066103D02*
X1032781Y1841500D01*
%TF.MD5,d3f3f8167a5871fa5e53784d3d441ffa*%
M02*
