%TF.GenerationSoftware,Altium Limited,Altium Designer,20.1.11 (218)*%
G04 Layer_Color=16711935*
%FSLAX45Y45*%
%MOMM*%
%TF.SameCoordinates,8684D80F-3192-4470-AB3D-773AF577FA96*%
%TF.FilePolarity,Negative*%
%TF.FileFunction,Soldermask,Bot*%
%TF.Part,Single*%
G01*
G75*
%TA.AperFunction,NonConductor*%
%ADD26R,4.57200X4.57200*%
%TA.AperFunction,ComponentPad*%
%ADD27C,1.70000*%
%ADD28R,1.70000X1.70000*%
%TA.AperFunction,ViaPad*%
%ADD29C,0.55000*%
D26*
X762000Y1016000D02*
D03*
D27*
X127000Y127000D02*
D03*
Y381000D02*
D03*
Y889000D02*
D03*
Y1397000D02*
D03*
Y1651000D02*
D03*
Y1143000D02*
D03*
Y635000D02*
D03*
X1397000Y127000D02*
D03*
Y381000D02*
D03*
Y889000D02*
D03*
Y1397000D02*
D03*
Y1651000D02*
D03*
Y1143000D02*
D03*
Y635000D02*
D03*
D28*
X127000Y1905000D02*
D03*
X1397000D02*
D03*
D29*
X609600Y1117600D02*
D03*
Y1066800D02*
D03*
Y1168400D02*
D03*
X660400Y965200D02*
D03*
X711200D02*
D03*
X762000D02*
D03*
Y1016000D02*
D03*
X711200D02*
D03*
X660400D02*
D03*
Y1066800D02*
D03*
X711200D02*
D03*
X762000D02*
D03*
X812800D02*
D03*
Y1016000D02*
D03*
Y965200D02*
D03*
Y914400D02*
D03*
X762000D02*
D03*
X711200D02*
D03*
X660400D02*
D03*
X609600D02*
D03*
Y965200D02*
D03*
Y1016000D02*
D03*
X863600Y1066800D02*
D03*
Y1016000D02*
D03*
Y965200D02*
D03*
Y914400D02*
D03*
Y863600D02*
D03*
X812800D02*
D03*
X762000D02*
D03*
X711200D02*
D03*
X660400D02*
D03*
X609600D02*
D03*
X914400D02*
D03*
Y914400D02*
D03*
Y965200D02*
D03*
Y1016000D02*
D03*
Y1066800D02*
D03*
Y1117600D02*
D03*
X863600D02*
D03*
X812800D02*
D03*
X762000D02*
D03*
X711200D02*
D03*
X660400D02*
D03*
X914400Y1168400D02*
D03*
X863600D02*
D03*
X812800D02*
D03*
X762000D02*
D03*
X711200D02*
D03*
X660400D02*
D03*
%TF.MD5,cce5f117af20eea60456c92d5ec1dcd6*%
M02*
