%TF.GenerationSoftware,Altium Limited,Altium Designer,20.1.11 (218)*%
G04 Layer_Color=8421504*
%FSLAX45Y45*%
%MOMM*%
%TF.SameCoordinates,14EB8A15-C646-47EE-B5EB-F16F919038EB*%
%TF.FilePolarity,Positive*%
%TF.FileFunction,Paste,Top*%
%TF.Part,Single*%
G01*
G75*
%TA.AperFunction,SMDPad,CuDef*%
%ADD11R,1.35000X0.95000*%
%ADD12R,0.56000X0.52000*%
%ADD13R,0.45000X0.50000*%
G04:AMPARAMS|DCode=15|XSize=0.24247mm|YSize=0.75607mm|CornerRadius=0.12124mm|HoleSize=0mm|Usage=FLASHONLY|Rotation=90.000|XOffset=0mm|YOffset=0mm|HoleType=Round|Shape=RoundedRectangle|*
%AMROUNDEDRECTD15*
21,1,0.24247,0.51359,0,0,90.0*
21,1,0.00000,0.75607,0,0,90.0*
1,1,0.24247,0.25680,0.00000*
1,1,0.24247,0.25680,0.00000*
1,1,0.24247,-0.25680,0.00000*
1,1,0.24247,-0.25680,0.00000*
%
%ADD15ROUNDEDRECTD15*%
G04:AMPARAMS|DCode=16|XSize=0.75607mm|YSize=0.24247mm|CornerRadius=0.12124mm|HoleSize=0mm|Usage=FLASHONLY|Rotation=90.000|XOffset=0mm|YOffset=0mm|HoleType=Round|Shape=RoundedRectangle|*
%AMROUNDEDRECTD16*
21,1,0.75607,0.00000,0,0,90.0*
21,1,0.51359,0.24247,0,0,90.0*
1,1,0.24247,0.00000,0.25680*
1,1,0.24247,0.00000,-0.25680*
1,1,0.24247,0.00000,-0.25680*
1,1,0.24247,0.00000,0.25680*
%
%ADD16ROUNDEDRECTD16*%
%ADD17R,0.24247X0.75607*%
%ADD18R,0.55000X1.70000*%
%ADD19R,0.52000X0.56000*%
%ADD20R,0.50000X0.45000*%
%TA.AperFunction,NonConductor*%
%ADD32R,2.34008X2.34009*%
D11*
X381000Y1141700D02*
D03*
Y1296700D02*
D03*
Y890300D02*
D03*
Y735300D02*
D03*
D12*
X342000Y1397000D02*
D03*
X420000D02*
D03*
X342000Y635000D02*
D03*
X420000D02*
D03*
X926200Y1371600D02*
D03*
X1004200D02*
D03*
D13*
X1016000Y597500D02*
D03*
Y672500D02*
D03*
D15*
X524197Y866000D02*
D03*
Y916000D02*
D03*
Y966000D02*
D03*
Y1016000D02*
D03*
Y1066000D02*
D03*
Y1116000D02*
D03*
Y1166000D02*
D03*
X999803D02*
D03*
Y1116000D02*
D03*
Y1066000D02*
D03*
Y1016000D02*
D03*
Y966000D02*
D03*
Y916000D02*
D03*
Y866000D02*
D03*
D16*
X612000Y1253803D02*
D03*
X662000D02*
D03*
X712000D02*
D03*
X762000D02*
D03*
X812000D02*
D03*
X862000D02*
D03*
X912000D02*
D03*
Y778197D02*
D03*
X862000D02*
D03*
X812000D02*
D03*
X762000D02*
D03*
X712000D02*
D03*
X662000D02*
D03*
D17*
X612000D02*
D03*
D18*
X604500Y177800D02*
D03*
X919500D02*
D03*
D19*
X812800Y596000D02*
D03*
Y674000D02*
D03*
X1117600Y801000D02*
D03*
Y723000D02*
D03*
X914400Y596000D02*
D03*
Y674000D02*
D03*
D20*
X1180500Y914400D02*
D03*
X1105500D02*
D03*
X1180500Y1016000D02*
D03*
X1105500D02*
D03*
X1180500Y1219200D02*
D03*
X1105500D02*
D03*
X1180500Y1117600D02*
D03*
X1105500D02*
D03*
D32*
X762000Y1016000D02*
D03*
%TF.MD5,efe7359551725a6a641bf298536c84c5*%
M02*
