%TF.GenerationSoftware,Altium Limited,Altium Designer,20.1.11 (218)*%
G04 Layer_Physical_Order=3*
G04 Layer_Color=16440176*
%FSLAX45Y45*%
%MOMM*%
%TF.SameCoordinates,14EB8A15-C646-47EE-B5EB-F16F919038EB*%
%TF.FilePolarity,Positive*%
%TF.FileFunction,Copper,L3,Inr,Signal*%
%TF.Part,Single*%
G01*
G75*
%TA.AperFunction,ComponentPad*%
%ADD21C,1.60000*%
%ADD22R,1.60000X1.60000*%
%TA.AperFunction,ViaPad*%
%ADD23C,0.60000*%
G36*
X1302000Y2000000D02*
X1302000Y1998909D01*
Y1810000D01*
X1490909D01*
X1492000Y1810000D01*
X1503609Y1807367D01*
Y1666341D01*
X1490909Y1665509D01*
X1489555Y1675800D01*
X1479982Y1698910D01*
X1464754Y1718754D01*
X1444910Y1733982D01*
X1421800Y1743555D01*
X1397000Y1746819D01*
X1372200Y1743555D01*
X1349090Y1733982D01*
X1329245Y1718754D01*
X1314018Y1698910D01*
X1304445Y1675800D01*
X1301181Y1651000D01*
X1304445Y1626200D01*
X1314018Y1603090D01*
X1329245Y1583245D01*
X1349090Y1568018D01*
X1372200Y1558445D01*
X1397000Y1555181D01*
X1421800Y1558445D01*
X1444910Y1568018D01*
X1464754Y1583245D01*
X1479982Y1603090D01*
X1489555Y1626200D01*
X1490909Y1636491D01*
X1503609Y1635659D01*
Y1412341D01*
X1490909Y1411509D01*
X1489555Y1421800D01*
X1479982Y1444910D01*
X1464754Y1464754D01*
X1444910Y1479982D01*
X1421800Y1489555D01*
X1397000Y1492819D01*
X1372200Y1489555D01*
X1349090Y1479982D01*
X1329245Y1464754D01*
X1314018Y1444910D01*
X1304445Y1421800D01*
X1301181Y1397000D01*
X1304445Y1372200D01*
X1314018Y1349090D01*
X1329245Y1329245D01*
X1349090Y1314018D01*
X1372200Y1304445D01*
X1397000Y1301181D01*
X1421800Y1304445D01*
X1444910Y1314018D01*
X1464754Y1329245D01*
X1479982Y1349090D01*
X1489555Y1372200D01*
X1490909Y1382491D01*
X1503609Y1381659D01*
Y1158341D01*
X1490909Y1157509D01*
X1489555Y1167800D01*
X1479982Y1190910D01*
X1464754Y1210754D01*
X1444910Y1225982D01*
X1421800Y1235555D01*
X1397000Y1238819D01*
X1372200Y1235555D01*
X1349090Y1225982D01*
X1329245Y1210754D01*
X1314018Y1190910D01*
X1304445Y1167800D01*
X1301181Y1143000D01*
X1304445Y1118200D01*
X1314018Y1095090D01*
X1329245Y1075245D01*
X1349090Y1060018D01*
X1372200Y1050445D01*
X1397000Y1047181D01*
X1421800Y1050445D01*
X1444910Y1060018D01*
X1464754Y1075245D01*
X1479982Y1095090D01*
X1489555Y1118200D01*
X1490909Y1128491D01*
X1503609Y1127659D01*
Y904341D01*
X1490909Y903509D01*
X1489555Y913800D01*
X1479982Y936910D01*
X1464754Y956754D01*
X1444910Y971982D01*
X1421800Y981555D01*
X1397000Y984819D01*
X1372200Y981555D01*
X1349090Y971982D01*
X1329245Y956754D01*
X1314018Y936910D01*
X1304445Y913800D01*
X1301181Y889000D01*
X1304445Y864200D01*
X1314018Y841090D01*
X1329245Y821246D01*
X1349090Y806018D01*
X1372200Y796445D01*
X1397000Y793181D01*
X1421800Y796445D01*
X1444910Y806018D01*
X1464754Y821246D01*
X1479982Y841090D01*
X1489555Y864200D01*
X1490909Y874491D01*
X1503609Y873659D01*
Y650341D01*
X1490909Y649509D01*
X1489555Y659800D01*
X1479982Y682910D01*
X1464754Y702754D01*
X1444910Y717982D01*
X1421800Y727555D01*
X1397000Y730819D01*
X1372200Y727555D01*
X1349090Y717982D01*
X1329245Y702754D01*
X1314018Y682910D01*
X1304445Y659800D01*
X1301181Y635000D01*
X1304445Y610200D01*
X1314018Y587090D01*
X1329245Y567245D01*
X1349090Y552018D01*
X1372200Y542445D01*
X1397000Y539181D01*
X1421800Y542445D01*
X1444910Y552018D01*
X1464754Y567245D01*
X1479982Y587090D01*
X1489555Y610200D01*
X1490909Y620491D01*
X1503609Y619659D01*
Y396341D01*
X1490909Y395509D01*
X1489555Y405800D01*
X1479982Y428910D01*
X1464754Y448754D01*
X1444910Y463982D01*
X1421800Y473555D01*
X1397000Y476819D01*
X1372200Y473555D01*
X1349090Y463982D01*
X1329245Y448754D01*
X1314018Y428910D01*
X1304445Y405800D01*
X1301181Y381000D01*
X1304445Y356200D01*
X1314018Y333090D01*
X1329245Y313245D01*
X1349090Y298018D01*
X1372200Y288445D01*
X1397000Y285181D01*
X1421800Y288445D01*
X1444910Y298018D01*
X1464754Y313245D01*
X1479982Y333090D01*
X1489555Y356200D01*
X1490909Y366491D01*
X1503609Y365659D01*
Y142341D01*
X1490909Y141509D01*
X1489555Y151800D01*
X1479982Y174910D01*
X1464754Y194755D01*
X1444910Y209982D01*
X1421800Y219555D01*
X1397000Y222819D01*
X1372200Y219555D01*
X1349090Y209982D01*
X1329245Y194755D01*
X1314018Y174910D01*
X1304445Y151800D01*
X1301181Y127000D01*
X1304445Y102200D01*
X1314018Y79090D01*
X1329245Y59246D01*
X1349090Y44018D01*
X1372200Y34445D01*
X1382491Y33091D01*
X1381659Y20391D01*
X1005788D01*
X1004537Y33091D01*
X1008158Y33811D01*
X1023043Y43757D01*
X1032989Y58642D01*
X1036482Y76200D01*
X1032989Y93758D01*
X1023506Y107950D01*
X1032989Y122142D01*
X1036482Y139700D01*
X1032989Y157258D01*
X1024873Y169405D01*
X1023780Y177800D01*
X1024873Y186195D01*
X1032989Y198342D01*
X1036482Y215900D01*
X1032989Y233458D01*
X1023506Y247650D01*
X1032989Y261842D01*
X1036482Y279400D01*
X1032989Y296958D01*
X1023043Y311843D01*
X1008158Y321789D01*
X990600Y325282D01*
X973042Y321789D01*
X968736Y318912D01*
X956036Y325700D01*
Y514715D01*
X956789Y515842D01*
X960282Y533400D01*
X956789Y550958D01*
X956036Y552085D01*
Y812339D01*
X955299Y814119D01*
X955614Y816019D01*
X952999Y819671D01*
X951281Y823820D01*
X950492Y833586D01*
X951979Y838843D01*
X956789Y846042D01*
X960282Y863600D01*
X956789Y881158D01*
X948673Y893305D01*
X947580Y901700D01*
X948673Y910095D01*
X956789Y922242D01*
X960282Y939800D01*
X956789Y957358D01*
X948673Y969505D01*
X947580Y977900D01*
X948673Y986295D01*
X956789Y998442D01*
X960282Y1016000D01*
X956789Y1033558D01*
X948673Y1045705D01*
X947580Y1054100D01*
X948673Y1062495D01*
X956789Y1074642D01*
X960282Y1092200D01*
X956789Y1109758D01*
X948673Y1121905D01*
X947580Y1130300D01*
X948673Y1138695D01*
X956789Y1150842D01*
X960282Y1168400D01*
X956789Y1185958D01*
X951979Y1193157D01*
X950492Y1198413D01*
X951281Y1208180D01*
X952999Y1212329D01*
X955614Y1215981D01*
X955299Y1217881D01*
X956036Y1219661D01*
Y1524000D01*
X951281Y1535481D01*
X939800Y1540236D01*
X20391D01*
Y1807367D01*
X32000Y1810000D01*
X33091Y1810000D01*
X222000D01*
Y1998909D01*
X222000Y2000000D01*
X224633Y2011609D01*
X1299367D01*
X1302000Y2000000D01*
D02*
G37*
G36*
X939800Y1219661D02*
X927100Y1211755D01*
X914400Y1214282D01*
X896842Y1210789D01*
X884695Y1202673D01*
X876300Y1201580D01*
X867905Y1202673D01*
X855758Y1210789D01*
X838200Y1214282D01*
X820642Y1210789D01*
X808495Y1202673D01*
X800100Y1201580D01*
X791705Y1202673D01*
X779558Y1210789D01*
X762000Y1214282D01*
X744442Y1210789D01*
X732295Y1202673D01*
X723900Y1201580D01*
X715505Y1202673D01*
X703358Y1210789D01*
X685800Y1214282D01*
X668242Y1210789D01*
X656095Y1202673D01*
X647700Y1201580D01*
X639305Y1202673D01*
X627158Y1210789D01*
X609600Y1214282D01*
X592042Y1210789D01*
X577157Y1200843D01*
X567211Y1185958D01*
X563718Y1168400D01*
X567211Y1150842D01*
X575327Y1138695D01*
X576420Y1130300D01*
X575327Y1121905D01*
X567211Y1109758D01*
X563718Y1092200D01*
X567211Y1074642D01*
X575327Y1062495D01*
X576420Y1054100D01*
X575327Y1045705D01*
X567211Y1033558D01*
X563718Y1016000D01*
X567211Y998442D01*
X575327Y986295D01*
X576420Y977900D01*
X575327Y969505D01*
X567211Y957358D01*
X563718Y939800D01*
X567211Y922242D01*
X575327Y910095D01*
X576420Y901700D01*
X575327Y893305D01*
X567211Y881158D01*
X563718Y863600D01*
X567211Y846042D01*
X577157Y831157D01*
X592042Y821211D01*
X609600Y817718D01*
X627158Y821211D01*
X639305Y829327D01*
X647700Y830420D01*
X656095Y829327D01*
X668242Y821211D01*
X685800Y817718D01*
X703358Y821211D01*
X715505Y829327D01*
X723900Y830420D01*
X732295Y829327D01*
X744442Y821211D01*
X762000Y817718D01*
X779558Y821211D01*
X791705Y829327D01*
X800100Y830420D01*
X808495Y829327D01*
X820642Y821211D01*
X838200Y817718D01*
X855758Y821211D01*
X867905Y829327D01*
X876300Y830420D01*
X884695Y829327D01*
X896842Y821211D01*
X914400Y817718D01*
X927100Y820245D01*
X939800Y812339D01*
Y20391D01*
X20391D01*
Y365659D01*
X33091Y366491D01*
X34445Y356200D01*
X44018Y333090D01*
X59246Y313245D01*
X79090Y298018D01*
X102200Y288445D01*
X127000Y285181D01*
X151800Y288445D01*
X174910Y298018D01*
X194755Y313245D01*
X209982Y333090D01*
X219555Y356200D01*
X222819Y381000D01*
X219555Y405800D01*
X209982Y428910D01*
X194755Y448754D01*
X174910Y463982D01*
X151800Y473555D01*
X127000Y476819D01*
X102200Y473555D01*
X79090Y463982D01*
X59246Y448754D01*
X44018Y428910D01*
X34445Y405800D01*
X33091Y395509D01*
X20391Y396341D01*
Y619659D01*
X33091Y620491D01*
X34445Y610200D01*
X44018Y587090D01*
X59246Y567245D01*
X79090Y552018D01*
X102200Y542445D01*
X127000Y539181D01*
X151800Y542445D01*
X174910Y552018D01*
X194755Y567245D01*
X209982Y587090D01*
X219555Y610200D01*
X221310Y623533D01*
X233518Y622299D01*
X234626Y616729D01*
X237011Y604742D01*
X246957Y589857D01*
X261842Y579911D01*
X279400Y576418D01*
X296958Y579911D01*
X311843Y589857D01*
X321789Y604742D01*
X325282Y622300D01*
X321789Y639858D01*
X312306Y654050D01*
X321789Y668242D01*
X325282Y685800D01*
X321789Y703358D01*
X312306Y717550D01*
X321789Y731742D01*
X325282Y749300D01*
X321789Y766858D01*
X311843Y781743D01*
X296958Y791689D01*
X279400Y795182D01*
X261842Y791689D01*
X246957Y781743D01*
X237011Y766858D01*
X233518Y749300D01*
X237011Y731742D01*
X246494Y717550D01*
X237011Y703358D01*
X233518Y685800D01*
X237011Y668242D01*
X246494Y654050D01*
X237011Y639858D01*
X235969Y634617D01*
X222971Y634370D01*
X222820Y635000D01*
X222667Y636161D01*
X219555Y659800D01*
X209982Y682910D01*
X194755Y702754D01*
X174910Y717982D01*
X151800Y727555D01*
X127000Y730819D01*
X102200Y727555D01*
X79090Y717982D01*
X59246Y702754D01*
X44018Y682910D01*
X34445Y659800D01*
X33091Y649509D01*
X20391Y650341D01*
Y873659D01*
X33091Y874491D01*
X34445Y864200D01*
X44018Y841090D01*
X59246Y821246D01*
X79090Y806018D01*
X102200Y796445D01*
X127000Y793181D01*
X151800Y796445D01*
X174910Y806018D01*
X194755Y821246D01*
X209982Y841090D01*
X219555Y864200D01*
X222819Y889000D01*
X219555Y913800D01*
X209982Y936910D01*
X194755Y956754D01*
X174910Y971982D01*
X151800Y981555D01*
X127000Y984819D01*
X102200Y981555D01*
X79090Y971982D01*
X59246Y956754D01*
X44018Y936910D01*
X34445Y913800D01*
X33091Y903509D01*
X20391Y904341D01*
Y1127659D01*
X33091Y1128491D01*
X34445Y1118200D01*
X44018Y1095090D01*
X59246Y1075245D01*
X79090Y1060018D01*
X102200Y1050445D01*
X127000Y1047181D01*
X151800Y1050445D01*
X174910Y1060018D01*
X194755Y1075245D01*
X209982Y1095090D01*
X219555Y1118200D01*
X222819Y1143000D01*
X219555Y1167800D01*
X209982Y1190910D01*
X194755Y1210754D01*
X174910Y1225982D01*
X151800Y1235555D01*
X127000Y1238819D01*
X102200Y1235555D01*
X79090Y1225982D01*
X59246Y1210754D01*
X44018Y1190910D01*
X34445Y1167800D01*
X33091Y1157509D01*
X20391Y1158341D01*
Y1381659D01*
X33091Y1382491D01*
X34445Y1372200D01*
X44018Y1349090D01*
X59246Y1329245D01*
X79090Y1314018D01*
X102200Y1304445D01*
X127000Y1301181D01*
X151800Y1304445D01*
X174910Y1314018D01*
X194755Y1329245D01*
X209982Y1349090D01*
X219555Y1372200D01*
X222667Y1395839D01*
X222820Y1397000D01*
X222971Y1397630D01*
X235969Y1397383D01*
X237011Y1392142D01*
X246494Y1377950D01*
X237011Y1363758D01*
X233518Y1346200D01*
X237011Y1328642D01*
X246494Y1314450D01*
X237011Y1300258D01*
X233518Y1282700D01*
X237011Y1265142D01*
X246957Y1250257D01*
X261842Y1240311D01*
X279400Y1236818D01*
X296958Y1240311D01*
X311843Y1250257D01*
X321789Y1265142D01*
X325282Y1282700D01*
X321789Y1300258D01*
X312306Y1314450D01*
X321789Y1328642D01*
X325282Y1346200D01*
X321789Y1363758D01*
X312306Y1377950D01*
X321789Y1392142D01*
X325282Y1409700D01*
X321789Y1427258D01*
X311843Y1442143D01*
X296958Y1452089D01*
X279400Y1455582D01*
X261842Y1452089D01*
X246957Y1442143D01*
X237011Y1427258D01*
X234627Y1415271D01*
X233518Y1409701D01*
X221310Y1408467D01*
X219555Y1421800D01*
X209982Y1444910D01*
X194755Y1464754D01*
X174910Y1479982D01*
X151800Y1489555D01*
X127000Y1492819D01*
X102200Y1489555D01*
X79090Y1479982D01*
X59246Y1464754D01*
X44018Y1444910D01*
X34445Y1421800D01*
X33091Y1411509D01*
X20391Y1412341D01*
Y1524000D01*
X939800D01*
Y1219661D01*
D02*
G37*
%LPC*%
G36*
X1244600Y1163482D02*
X1227042Y1159989D01*
X1212157Y1150043D01*
X1202211Y1135158D01*
X1198718Y1117600D01*
X1202211Y1100042D01*
X1212157Y1085157D01*
X1227042Y1075211D01*
X1244600Y1071718D01*
X1262158Y1075211D01*
X1277043Y1085157D01*
X1286989Y1100042D01*
X1290482Y1117600D01*
X1286989Y1135158D01*
X1277043Y1150043D01*
X1262158Y1159989D01*
X1244600Y1163482D01*
D02*
G37*
G36*
X812800Y1417482D02*
X795242Y1413989D01*
X780357Y1404043D01*
X770411Y1389158D01*
X766918Y1371600D01*
X770411Y1354042D01*
X780357Y1339157D01*
X795242Y1329211D01*
X812800Y1325718D01*
X830358Y1329211D01*
X845243Y1339157D01*
X855189Y1354042D01*
X858682Y1371600D01*
X855189Y1389158D01*
X845243Y1404043D01*
X830358Y1413989D01*
X812800Y1417482D01*
D02*
G37*
%LPD*%
D21*
X1397000Y635000D02*
D03*
X127000Y127000D02*
D03*
Y381000D02*
D03*
Y889000D02*
D03*
Y1397000D02*
D03*
Y1651000D02*
D03*
Y1143000D02*
D03*
Y635000D02*
D03*
X1397000Y127000D02*
D03*
Y381000D02*
D03*
Y889000D02*
D03*
Y1397000D02*
D03*
Y1651000D02*
D03*
Y1143000D02*
D03*
D22*
X127000Y1905000D02*
D03*
X1397000D02*
D03*
D23*
X533400Y139700D02*
D03*
X609600Y1168400D02*
D03*
Y1092200D02*
D03*
Y1016000D02*
D03*
X685800Y1168400D02*
D03*
Y1092200D02*
D03*
Y1016000D02*
D03*
X762000Y1168400D02*
D03*
Y1092200D02*
D03*
Y1016000D02*
D03*
X838200Y1168400D02*
D03*
Y1092200D02*
D03*
Y1016000D02*
D03*
X609600Y939800D02*
D03*
X685800D02*
D03*
X762000D02*
D03*
X838200D02*
D03*
X914400Y1168400D02*
D03*
Y1092200D02*
D03*
Y1016000D02*
D03*
Y939800D02*
D03*
X762000Y863600D02*
D03*
X838200D02*
D03*
X685800D02*
D03*
X609600D02*
D03*
X914400D02*
D03*
X990600Y139700D02*
D03*
Y215900D02*
D03*
X533400D02*
D03*
X508000Y685800D02*
D03*
Y622300D02*
D03*
X279400Y685800D02*
D03*
Y622300D02*
D03*
X508000Y1346200D02*
D03*
Y1409700D02*
D03*
X279400Y1346200D02*
D03*
Y1409700D02*
D03*
X1244600Y914400D02*
D03*
X508000Y1282700D02*
D03*
X279400D02*
D03*
X812800Y1371600D02*
D03*
X1016000Y533400D02*
D03*
X914400D02*
D03*
X990600Y279400D02*
D03*
X1244600Y1219200D02*
D03*
Y1117600D02*
D03*
X990600Y1473200D02*
D03*
Y76200D02*
D03*
X533400D02*
D03*
Y279400D02*
D03*
X508000Y749300D02*
D03*
X279400D02*
D03*
%TF.MD5,76b4a31ba6b9c5616a227b3377c81208*%
M02*
