%TF.GenerationSoftware,Altium Limited,Altium Designer,20.1.11 (218)*%
G04 Layer_Color=2752767*
%FSLAX45Y45*%
%MOMM*%
%TF.SameCoordinates,14EB8A15-C646-47EE-B5EB-F16F919038EB*%
%TF.FilePolarity,Positive*%
%TF.FileFunction,Drawing*%
%TF.Part,Single*%
G01*
G75*
%TA.AperFunction,NonConductor*%
%ADD43C,0.12700*%
%ADD44C,0.16933*%
D43*
X1346200Y584200D02*
Y685800D01*
X1447800D01*
Y584200D01*
X1346200D01*
X76200Y76200D02*
Y177800D01*
X177800D01*
Y76200D01*
X76200D01*
Y330200D02*
Y431800D01*
X177800D01*
Y330200D01*
X76200D01*
Y838200D02*
Y939800D01*
X177800D01*
Y838200D01*
X76200D01*
Y1346200D02*
Y1447800D01*
X177800D01*
Y1346200D01*
X76200D01*
Y1854200D02*
Y1955800D01*
X177800D01*
Y1854200D01*
X76200D01*
Y1600200D02*
Y1701800D01*
X177800D01*
Y1600200D01*
X76200D01*
Y1092200D02*
Y1193800D01*
X177800D01*
Y1092200D01*
X76200D01*
Y584200D02*
Y685800D01*
X177800D01*
Y584200D01*
X76200D01*
X1346200Y76200D02*
Y177800D01*
X1447800D01*
Y76200D01*
X1346200D01*
Y330200D02*
Y431800D01*
X1447800D01*
Y330200D01*
X1346200D01*
Y838200D02*
Y939800D01*
X1447800D01*
Y838200D01*
X1346200D01*
Y1346200D02*
Y1447800D01*
X1447800D01*
Y1346200D01*
X1346200D01*
Y1854200D02*
Y1955800D01*
X1447800D01*
Y1854200D01*
X1346200D01*
Y1600200D02*
Y1701800D01*
X1447800D01*
Y1600200D01*
X1346200D01*
Y1092200D02*
Y1193800D01*
X1447800D01*
Y1092200D01*
X1346200D01*
D44*
X584200Y139700D02*
G03*
X584200Y139700I-50800J0D01*
G01*
X660400Y1168400D02*
G03*
X660400Y1168400I-50800J0D01*
G01*
Y1092200D02*
G03*
X660400Y1092200I-50800J0D01*
G01*
Y1016000D02*
G03*
X660400Y1016000I-50800J0D01*
G01*
X736600Y1168400D02*
G03*
X736600Y1168400I-50800J0D01*
G01*
Y1092200D02*
G03*
X736600Y1092200I-50800J0D01*
G01*
Y1016000D02*
G03*
X736600Y1016000I-50800J0D01*
G01*
X812800Y1168400D02*
G03*
X812800Y1168400I-50800J0D01*
G01*
Y1092200D02*
G03*
X812800Y1092200I-50800J0D01*
G01*
Y1016000D02*
G03*
X812800Y1016000I-50800J0D01*
G01*
X889000Y1168400D02*
G03*
X889000Y1168400I-50800J0D01*
G01*
Y1092200D02*
G03*
X889000Y1092200I-50800J0D01*
G01*
Y1016000D02*
G03*
X889000Y1016000I-50800J0D01*
G01*
X660400Y939800D02*
G03*
X660400Y939800I-50800J0D01*
G01*
X736600D02*
G03*
X736600Y939800I-50800J0D01*
G01*
X812800D02*
G03*
X812800Y939800I-50800J0D01*
G01*
X889000D02*
G03*
X889000Y939800I-50800J0D01*
G01*
X965200Y1168400D02*
G03*
X965200Y1168400I-50800J0D01*
G01*
Y1092200D02*
G03*
X965200Y1092200I-50800J0D01*
G01*
Y1016000D02*
G03*
X965200Y1016000I-50800J0D01*
G01*
Y939800D02*
G03*
X965200Y939800I-50800J0D01*
G01*
X812800Y863600D02*
G03*
X812800Y863600I-50800J0D01*
G01*
X889000D02*
G03*
X889000Y863600I-50800J0D01*
G01*
X736600D02*
G03*
X736600Y863600I-50800J0D01*
G01*
X660400D02*
G03*
X660400Y863600I-50800J0D01*
G01*
X965200D02*
G03*
X965200Y863600I-50800J0D01*
G01*
X1041400Y139700D02*
G03*
X1041400Y139700I-50800J0D01*
G01*
Y215900D02*
G03*
X1041400Y215900I-50800J0D01*
G01*
X584200D02*
G03*
X584200Y215900I-50800J0D01*
G01*
X558800Y685800D02*
G03*
X558800Y685800I-50800J0D01*
G01*
Y622300D02*
G03*
X558800Y622300I-50800J0D01*
G01*
X330200Y685800D02*
G03*
X330200Y685800I-50800J0D01*
G01*
Y622300D02*
G03*
X330200Y622300I-50800J0D01*
G01*
X558800Y1346200D02*
G03*
X558800Y1346200I-50800J0D01*
G01*
Y1409700D02*
G03*
X558800Y1409700I-50800J0D01*
G01*
X330200Y1346200D02*
G03*
X330200Y1346200I-50800J0D01*
G01*
Y1409700D02*
G03*
X330200Y1409700I-50800J0D01*
G01*
X1295400Y914400D02*
G03*
X1295400Y914400I-50800J0D01*
G01*
X558800Y1282700D02*
G03*
X558800Y1282700I-50800J0D01*
G01*
X330200D02*
G03*
X330200Y1282700I-50800J0D01*
G01*
X863600Y1371600D02*
G03*
X863600Y1371600I-50800J0D01*
G01*
X1066800Y533400D02*
G03*
X1066800Y533400I-50800J0D01*
G01*
X965200D02*
G03*
X965200Y533400I-50800J0D01*
G01*
X1041400Y279400D02*
G03*
X1041400Y279400I-50800J0D01*
G01*
X1295400Y1219200D02*
G03*
X1295400Y1219200I-50800J0D01*
G01*
Y1117600D02*
G03*
X1295400Y1117600I-50800J0D01*
G01*
X1041400Y1473200D02*
G03*
X1041400Y1473200I-50800J0D01*
G01*
Y76200D02*
G03*
X1041400Y76200I-50800J0D01*
G01*
X584200D02*
G03*
X584200Y76200I-50800J0D01*
G01*
Y279400D02*
G03*
X584200Y279400I-50800J0D01*
G01*
X558800Y749300D02*
G03*
X558800Y749300I-50800J0D01*
G01*
X330200D02*
G03*
X330200Y749300I-50800J0D01*
G01*
%TF.MD5,6102ca32082848604ff9fae47d887974*%
M02*
