%TF.GenerationSoftware,Altium Limited,Altium Designer,20.1.11 (218)*%
G04 Layer_Color=128*
%FSLAX45Y45*%
%MOMM*%
%TF.SameCoordinates,14EB8A15-C646-47EE-B5EB-F16F919038EB*%
%TF.FilePolarity,Positive*%
%TF.FileFunction,Drillmap*%
%TF.Part,Single*%
G01*
G75*
%TA.AperFunction,NonConductor*%
%ADD43C,0.12700*%
D43*
X1342000Y635000D02*
X1452000D01*
X1397000Y580000D02*
Y690000D01*
X72000Y127000D02*
X182000D01*
X127000Y72000D02*
Y182000D01*
X72000Y381000D02*
X182000D01*
X127000Y326000D02*
Y436000D01*
X72000Y889000D02*
X182000D01*
X127000Y834000D02*
Y944000D01*
X72000Y1397000D02*
X182000D01*
X127000Y1342000D02*
Y1452000D01*
X72000Y1905000D02*
X182000D01*
X127000Y1850000D02*
Y1960000D01*
X72000Y1651000D02*
X182000D01*
X127000Y1596000D02*
Y1706000D01*
X72000Y1143000D02*
X182000D01*
X127000Y1088000D02*
Y1198000D01*
X72000Y635000D02*
X182000D01*
X127000Y580000D02*
Y690000D01*
X1342000Y127000D02*
X1452000D01*
X1397000Y72000D02*
Y182000D01*
X1342000Y381000D02*
X1452000D01*
X1397000Y326000D02*
Y436000D01*
X1342000Y889000D02*
X1452000D01*
X1397000Y834000D02*
Y944000D01*
X1342000Y1397000D02*
X1452000D01*
X1397000Y1342000D02*
Y1452000D01*
X1342000Y1905000D02*
X1452000D01*
X1397000Y1850000D02*
Y1960000D01*
X1342000Y1651000D02*
X1452000D01*
X1397000Y1596000D02*
Y1706000D01*
X1342000Y1143000D02*
X1452000D01*
X1397000Y1088000D02*
Y1198000D01*
X518400Y139700D02*
X548400D01*
X533400Y124700D02*
Y154700D01*
X594600Y1168400D02*
X624600D01*
X609600Y1153400D02*
Y1183400D01*
X594600Y1092200D02*
X624600D01*
X609600Y1077200D02*
Y1107200D01*
X594600Y1016000D02*
X624600D01*
X609600Y1001000D02*
Y1031000D01*
X670800Y1168400D02*
X700800D01*
X685800Y1153400D02*
Y1183400D01*
X670800Y1092200D02*
X700800D01*
X685800Y1077200D02*
Y1107200D01*
X670800Y1016000D02*
X700800D01*
X685800Y1001000D02*
Y1031000D01*
X747000Y1168400D02*
X777000D01*
X762000Y1153400D02*
Y1183400D01*
X747000Y1092200D02*
X777000D01*
X762000Y1077200D02*
Y1107200D01*
X747000Y1016000D02*
X777000D01*
X762000Y1001000D02*
Y1031000D01*
X823200Y1168400D02*
X853200D01*
X838200Y1153400D02*
Y1183400D01*
X823200Y1092200D02*
X853200D01*
X838200Y1077200D02*
Y1107200D01*
X823200Y1016000D02*
X853200D01*
X838200Y1001000D02*
Y1031000D01*
X594600Y939800D02*
X624600D01*
X609600Y924800D02*
Y954800D01*
X670800Y939800D02*
X700800D01*
X685800Y924800D02*
Y954800D01*
X747000Y939800D02*
X777000D01*
X762000Y924800D02*
Y954800D01*
X823200Y939800D02*
X853200D01*
X838200Y924800D02*
Y954800D01*
X899400Y1168400D02*
X929400D01*
X914400Y1153400D02*
Y1183400D01*
X899400Y1092200D02*
X929400D01*
X914400Y1077200D02*
Y1107200D01*
X899400Y1016000D02*
X929400D01*
X914400Y1001000D02*
Y1031000D01*
X899400Y939800D02*
X929400D01*
X914400Y924800D02*
Y954800D01*
X747000Y863600D02*
X777000D01*
X762000Y848600D02*
Y878600D01*
X823200Y863600D02*
X853200D01*
X838200Y848600D02*
Y878600D01*
X670800Y863600D02*
X700800D01*
X685800Y848600D02*
Y878600D01*
X594600Y863600D02*
X624600D01*
X609600Y848600D02*
Y878600D01*
X899400Y863600D02*
X929400D01*
X914400Y848600D02*
Y878600D01*
X975600Y139700D02*
X1005600D01*
X990600Y124700D02*
Y154700D01*
X975600Y215900D02*
X1005600D01*
X990600Y200900D02*
Y230900D01*
X518400Y215900D02*
X548400D01*
X533400Y200900D02*
Y230900D01*
X493000Y685800D02*
X523000D01*
X508000Y670800D02*
Y700800D01*
X493000Y622300D02*
X523000D01*
X508000Y607300D02*
Y637300D01*
X264400Y685800D02*
X294400D01*
X279400Y670800D02*
Y700800D01*
X264400Y622300D02*
X294400D01*
X279400Y607300D02*
Y637300D01*
X493000Y1346200D02*
X523000D01*
X508000Y1331200D02*
Y1361200D01*
X493000Y1409700D02*
X523000D01*
X508000Y1394700D02*
Y1424700D01*
X264400Y1346200D02*
X294400D01*
X279400Y1331200D02*
Y1361200D01*
X264400Y1409700D02*
X294400D01*
X279400Y1394700D02*
Y1424700D01*
X1229600Y914400D02*
X1259600D01*
X1244600Y899400D02*
Y929400D01*
X493000Y1282700D02*
X523000D01*
X508000Y1267700D02*
Y1297700D01*
X264400Y1282700D02*
X294400D01*
X279400Y1267700D02*
Y1297700D01*
X797800Y1371600D02*
X827800D01*
X812800Y1356600D02*
Y1386600D01*
X1001000Y533400D02*
X1031000D01*
X1016000Y518400D02*
Y548400D01*
X899400Y533400D02*
X929400D01*
X914400Y518400D02*
Y548400D01*
X975600Y279400D02*
X1005600D01*
X990600Y264400D02*
Y294400D01*
X1229600Y1219200D02*
X1259600D01*
X1244600Y1204200D02*
Y1234200D01*
X1229600Y1117600D02*
X1259600D01*
X1244600Y1102600D02*
Y1132600D01*
X975600Y1473200D02*
X1005600D01*
X990600Y1458200D02*
Y1488200D01*
X975600Y76200D02*
X1005600D01*
X990600Y61200D02*
Y91200D01*
X518400Y76200D02*
X548400D01*
X533400Y61200D02*
Y91200D01*
X518400Y279400D02*
X548400D01*
X533400Y264400D02*
Y294400D01*
X493000Y749300D02*
X523000D01*
X508000Y734300D02*
Y764300D01*
X264400Y749300D02*
X294400D01*
X279400Y734300D02*
Y764300D01*
%TF.MD5,6f8f8f9c4fd4bbdd9c8e0e4e74ddd04e*%
M02*
