%TF.GenerationSoftware,Altium Limited,Altium Designer,20.1.11 (218)*%
G04 Layer_Color=8388736*
%FSLAX45Y45*%
%MOMM*%
%TF.SameCoordinates,A58613BD-9F4A-4EB4-9302-7A3247439128*%
%TF.FilePolarity,Negative*%
%TF.FileFunction,Soldermask,Top*%
%TF.Part,Single*%
G01*
G75*
%TA.AperFunction,SMDPad,CuDef*%
%ADD14R,3.70000X3.70000*%
G04:AMPARAMS|DCode=15|XSize=0.24247mm|YSize=0.75607mm|CornerRadius=0.12124mm|HoleSize=0mm|Usage=FLASHONLY|Rotation=90.000|XOffset=0mm|YOffset=0mm|HoleType=Round|Shape=RoundedRectangle|*
%AMROUNDEDRECTD15*
21,1,0.24247,0.51359,0,0,90.0*
21,1,0.00000,0.75607,0,0,90.0*
1,1,0.24247,0.25680,0.00000*
1,1,0.24247,0.25680,0.00000*
1,1,0.24247,-0.25680,0.00000*
1,1,0.24247,-0.25680,0.00000*
%
%ADD15ROUNDEDRECTD15*%
G04:AMPARAMS|DCode=16|XSize=0.75607mm|YSize=0.24247mm|CornerRadius=0.12124mm|HoleSize=0mm|Usage=FLASHONLY|Rotation=90.000|XOffset=0mm|YOffset=0mm|HoleType=Round|Shape=RoundedRectangle|*
%AMROUNDEDRECTD16*
21,1,0.75607,0.00000,0,0,90.0*
21,1,0.51359,0.24247,0,0,90.0*
1,1,0.24247,0.00000,0.25680*
1,1,0.24247,0.00000,-0.25680*
1,1,0.24247,0.00000,-0.25680*
1,1,0.24247,0.00000,0.25680*
%
%ADD16ROUNDEDRECTD16*%
%ADD17R,0.24247X0.75607*%
%TA.AperFunction,ComponentPad*%
%ADD27C,1.70000*%
%ADD28R,1.70000X1.70000*%
%TA.AperFunction,ViaPad*%
%ADD29C,0.70000*%
%TA.AperFunction,SMDPad,CuDef*%
%ADD33R,1.45000X1.05000*%
%ADD34R,0.66000X0.62000*%
%ADD35R,0.55000X0.60000*%
%ADD36R,0.65000X1.80000*%
%ADD37R,0.62000X0.66000*%
%ADD38R,0.60000X0.55000*%
D14*
X762000Y1016000D02*
D03*
D15*
X524197Y866000D02*
D03*
Y916000D02*
D03*
Y966000D02*
D03*
Y1016000D02*
D03*
Y1066000D02*
D03*
Y1116000D02*
D03*
Y1166000D02*
D03*
X999803D02*
D03*
Y1116000D02*
D03*
Y1066000D02*
D03*
Y1016000D02*
D03*
Y966000D02*
D03*
Y916000D02*
D03*
Y866000D02*
D03*
D16*
X612000Y1253803D02*
D03*
X662000D02*
D03*
X712000D02*
D03*
X762000D02*
D03*
X812000D02*
D03*
X862000D02*
D03*
X912000D02*
D03*
Y778197D02*
D03*
X862000D02*
D03*
X812000D02*
D03*
X762000D02*
D03*
X712000D02*
D03*
X662000D02*
D03*
D17*
X612000D02*
D03*
D27*
X1397000Y635000D02*
D03*
X127000Y127000D02*
D03*
Y381000D02*
D03*
Y889000D02*
D03*
Y1397000D02*
D03*
Y1651000D02*
D03*
Y1143000D02*
D03*
Y635000D02*
D03*
X1397000Y127000D02*
D03*
Y381000D02*
D03*
Y889000D02*
D03*
Y1397000D02*
D03*
Y1651000D02*
D03*
Y1143000D02*
D03*
D28*
X127000Y1905000D02*
D03*
X1397000D02*
D03*
D29*
X609600Y1168400D02*
D03*
Y1092200D02*
D03*
Y1016000D02*
D03*
X685800Y1168400D02*
D03*
Y1092200D02*
D03*
Y1016000D02*
D03*
X762000Y1168400D02*
D03*
Y1092200D02*
D03*
Y1016000D02*
D03*
X838200Y1168400D02*
D03*
Y1092200D02*
D03*
Y1016000D02*
D03*
X609600Y939800D02*
D03*
X685800D02*
D03*
X762000D02*
D03*
X838200D02*
D03*
X914400Y1168400D02*
D03*
Y1092200D02*
D03*
Y1016000D02*
D03*
Y939800D02*
D03*
X762000Y863600D02*
D03*
X838200D02*
D03*
X685800D02*
D03*
X609600D02*
D03*
X914400D02*
D03*
D33*
X381000Y1141700D02*
D03*
Y1296700D02*
D03*
Y890300D02*
D03*
Y735300D02*
D03*
D34*
X342000Y1397000D02*
D03*
X420000D02*
D03*
X342000Y635000D02*
D03*
X420000D02*
D03*
X926200Y1371600D02*
D03*
X1004200D02*
D03*
D35*
X1016000Y597500D02*
D03*
Y672500D02*
D03*
D36*
X604500Y177800D02*
D03*
X919500D02*
D03*
D37*
X812800Y596000D02*
D03*
Y674000D02*
D03*
X1117600Y801000D02*
D03*
Y723000D02*
D03*
X914400Y596000D02*
D03*
Y674000D02*
D03*
D38*
X1180500Y914400D02*
D03*
X1105500D02*
D03*
X1180500Y1016000D02*
D03*
X1105500D02*
D03*
X1180500Y1219200D02*
D03*
X1105500D02*
D03*
X1180500Y1117600D02*
D03*
X1105500D02*
D03*
%TF.MD5,375c776d959b2d87a60cd8d581499eb9*%
M02*
