%TF.GenerationSoftware,Altium Limited,Altium Designer,20.1.11 (218)*%
G04 Layer_Physical_Order=4*
G04 Layer_Color=16711680*
%FSLAX45Y45*%
%MOMM*%
%TF.SameCoordinates,A58613BD-9F4A-4EB4-9302-7A3247439128*%
%TF.FilePolarity,Positive*%
%TF.FileFunction,Copper,L4,Bot,Signal*%
%TF.Part,Single*%
G01*
G75*
%TA.AperFunction,Conductor*%
%ADD10C,0.24999*%
%TA.AperFunction,ComponentPad*%
%ADD21C,1.60000*%
%ADD22R,1.60000X1.60000*%
%TA.AperFunction,ViaPad*%
%ADD23C,0.60000*%
G36*
X1302000Y2000000D02*
X1302000Y1998909D01*
Y1810000D01*
X1490909D01*
X1492000Y1810000D01*
X1503609Y1807367D01*
Y1666341D01*
X1490909Y1665509D01*
X1489555Y1675800D01*
X1479982Y1698910D01*
X1464754Y1718754D01*
X1444910Y1733982D01*
X1421800Y1743555D01*
X1397000Y1746819D01*
X1372200Y1743555D01*
X1349090Y1733982D01*
X1329245Y1718754D01*
X1314018Y1698910D01*
X1304445Y1675800D01*
X1301181Y1651000D01*
X1304445Y1626200D01*
X1314018Y1603090D01*
X1329245Y1583245D01*
X1349090Y1568018D01*
X1372200Y1558445D01*
X1397000Y1555181D01*
X1421800Y1558445D01*
X1444910Y1568018D01*
X1464754Y1583245D01*
X1479982Y1603090D01*
X1489555Y1626200D01*
X1490909Y1636491D01*
X1503609Y1635659D01*
Y1412341D01*
X1490909Y1411509D01*
X1489555Y1421800D01*
X1479982Y1444910D01*
X1464754Y1464754D01*
X1444910Y1479982D01*
X1421800Y1489555D01*
X1397000Y1492819D01*
X1372200Y1489555D01*
X1349090Y1479982D01*
X1329245Y1464754D01*
X1314018Y1444910D01*
X1304445Y1421800D01*
X1301181Y1397000D01*
X1304445Y1372200D01*
X1314018Y1349090D01*
X1329245Y1329245D01*
X1349090Y1314018D01*
X1372200Y1304445D01*
X1397000Y1301181D01*
X1421800Y1304445D01*
X1444910Y1314018D01*
X1464754Y1329245D01*
X1479982Y1349090D01*
X1489555Y1372200D01*
X1490909Y1382491D01*
X1503609Y1381659D01*
Y1158341D01*
X1490909Y1157509D01*
X1489555Y1167800D01*
X1479982Y1190910D01*
X1464754Y1210754D01*
X1444910Y1225982D01*
X1421800Y1235555D01*
X1397000Y1238819D01*
X1372200Y1235555D01*
X1349090Y1225982D01*
X1329245Y1210754D01*
X1314018Y1190910D01*
X1304445Y1167800D01*
X1301181Y1143000D01*
X1304445Y1118200D01*
X1314018Y1095090D01*
X1329245Y1075245D01*
X1349090Y1060018D01*
X1372200Y1050445D01*
X1397000Y1047181D01*
X1421800Y1050445D01*
X1444910Y1060018D01*
X1464754Y1075245D01*
X1479982Y1095090D01*
X1489555Y1118200D01*
X1490909Y1128491D01*
X1503609Y1127659D01*
Y904341D01*
X1490909Y903509D01*
X1489555Y913800D01*
X1479982Y936910D01*
X1464754Y956754D01*
X1444910Y971982D01*
X1421800Y981555D01*
X1397000Y984819D01*
X1372200Y981555D01*
X1352265Y973297D01*
X1321960Y998576D01*
X1213967Y1106569D01*
X1213829Y1107036D01*
X1213004Y1111183D01*
X1212295Y1112245D01*
X1211934Y1113471D01*
X1209277Y1116762D01*
X1208809Y1117462D01*
X1201502Y1179843D01*
X1209592Y1185093D01*
X1213484Y1185870D01*
X1227042Y1176811D01*
X1244600Y1173318D01*
X1262158Y1176811D01*
X1277043Y1186757D01*
X1286989Y1201642D01*
X1290482Y1219200D01*
X1286989Y1236758D01*
X1277043Y1251643D01*
X1262158Y1261589D01*
X1244600Y1265082D01*
X1227042Y1261589D01*
X1212157Y1251643D01*
X1205258Y1241319D01*
X1191977Y1244302D01*
X1189740Y1259380D01*
X1189584Y1260438D01*
X1189574Y1260476D01*
X1186860Y1271616D01*
X1186860Y1271616D01*
X1175947Y1307591D01*
X1157020Y1343002D01*
X1131547Y1374041D01*
X1131112Y1374091D01*
X1113017Y1387975D01*
X1091625Y1396836D01*
X1068670Y1399858D01*
Y1399638D01*
X848187D01*
X845243Y1404043D01*
X830358Y1413989D01*
X812800Y1417482D01*
X795242Y1413989D01*
X780357Y1404043D01*
X770411Y1389158D01*
X766918Y1371600D01*
X770411Y1354042D01*
X780357Y1339157D01*
X795242Y1329211D01*
X812800Y1325718D01*
X830358Y1329211D01*
X845243Y1339157D01*
X848187Y1343562D01*
X1068670D01*
Y1343451D01*
X1081026Y1340993D01*
X1091394Y1334065D01*
X1099290Y1324649D01*
X1110007Y1311590D01*
X1123710Y1285954D01*
X1131611Y1259910D01*
X1131610Y1259910D01*
X1131611D01*
X1134591Y1247682D01*
X1145153Y1176483D01*
X1145418Y1176514D01*
X1145435Y1176497D01*
X1154234Y1101378D01*
X1155807Y1096519D01*
X1157249Y1091622D01*
X1157486Y1091329D01*
X1157602Y1090969D01*
X1160238Y1087876D01*
X1161197Y1083053D01*
X1167275Y1073957D01*
X1282405Y958827D01*
X1282407Y958825D01*
X1282408Y958824D01*
X1283206Y958026D01*
X1284266Y957318D01*
X1285068Y956324D01*
X1312561Y933392D01*
X1304445Y913800D01*
X1301181Y889000D01*
X1304445Y864200D01*
X1314018Y841090D01*
X1329245Y821246D01*
X1349090Y806018D01*
X1372200Y796445D01*
X1397000Y793181D01*
X1421800Y796445D01*
X1444910Y806018D01*
X1464754Y821246D01*
X1479982Y841090D01*
X1489555Y864200D01*
X1490909Y874491D01*
X1503609Y873659D01*
Y650341D01*
X1490909Y649509D01*
X1489555Y659800D01*
X1479982Y682910D01*
X1464754Y702754D01*
X1444910Y717982D01*
X1421800Y727555D01*
X1397000Y730819D01*
X1372200Y727555D01*
X1349090Y717982D01*
X1329245Y702754D01*
X1314018Y682910D01*
X1304445Y659800D01*
X1301181Y635000D01*
X1304445Y610200D01*
X1314018Y587090D01*
X1329245Y567245D01*
X1349090Y552018D01*
X1372200Y542445D01*
X1397000Y539181D01*
X1421800Y542445D01*
X1444910Y552018D01*
X1464754Y567245D01*
X1479982Y587090D01*
X1489555Y610200D01*
X1490909Y620491D01*
X1503609Y619659D01*
Y396341D01*
X1490909Y395509D01*
X1489555Y405800D01*
X1479982Y428910D01*
X1464754Y448754D01*
X1444910Y463982D01*
X1421800Y473555D01*
X1397000Y476819D01*
X1372200Y473555D01*
X1349090Y463982D01*
X1329245Y448754D01*
X1314018Y428910D01*
X1304445Y405800D01*
X1301181Y381000D01*
X1304445Y356200D01*
X1314018Y333090D01*
X1329245Y313245D01*
X1349090Y298018D01*
X1372200Y288445D01*
X1397000Y285181D01*
X1421800Y288445D01*
X1444910Y298018D01*
X1464754Y313245D01*
X1479982Y333090D01*
X1489555Y356200D01*
X1490909Y366491D01*
X1503609Y365659D01*
Y142341D01*
X1490909Y141509D01*
X1489555Y151800D01*
X1479982Y174910D01*
X1464754Y194755D01*
X1444910Y209982D01*
X1421800Y219555D01*
X1397000Y222819D01*
X1372200Y219555D01*
X1349090Y209982D01*
X1329245Y194755D01*
X1314018Y174910D01*
X1304445Y151800D01*
X1301181Y127000D01*
X1304445Y102200D01*
X1314018Y79090D01*
X1329245Y59246D01*
X1349090Y44018D01*
X1372200Y34445D01*
X1382491Y33091D01*
X1381659Y20391D01*
X548588D01*
X547337Y33091D01*
X550958Y33811D01*
X565843Y43757D01*
X575789Y58642D01*
X579282Y76200D01*
X575789Y93758D01*
X566306Y107950D01*
X575789Y122142D01*
X579282Y139700D01*
X575789Y157258D01*
X567673Y169405D01*
X566580Y177800D01*
X567673Y186195D01*
X575789Y198342D01*
X579282Y215900D01*
X575789Y233458D01*
X566306Y247650D01*
X575789Y261842D01*
X579282Y279400D01*
X575789Y296958D01*
X565843Y311843D01*
X550958Y321789D01*
X533400Y325282D01*
X515842Y321789D01*
X500957Y311843D01*
X491011Y296958D01*
X487518Y279400D01*
X491011Y261842D01*
X500494Y247650D01*
X491011Y233458D01*
X487518Y215900D01*
X491011Y198342D01*
X499127Y186195D01*
X500220Y177800D01*
X499127Y169405D01*
X491011Y157258D01*
X487518Y139700D01*
X491011Y122142D01*
X500494Y107950D01*
X491011Y93758D01*
X487518Y76200D01*
X491011Y58642D01*
X500957Y43757D01*
X515842Y33811D01*
X519463Y33091D01*
X518212Y20391D01*
X142341D01*
X141509Y33091D01*
X151800Y34445D01*
X174910Y44018D01*
X194755Y59246D01*
X209982Y79090D01*
X219555Y102200D01*
X222819Y127000D01*
X219555Y151800D01*
X209982Y174910D01*
X194755Y194755D01*
X174910Y209982D01*
X151800Y219555D01*
X127000Y222819D01*
X102200Y219555D01*
X79090Y209982D01*
X59246Y194755D01*
X44018Y174910D01*
X34445Y151800D01*
X33091Y141509D01*
X20391Y142341D01*
Y619659D01*
X33091Y620491D01*
X34445Y610200D01*
X44018Y587090D01*
X59246Y567245D01*
X79090Y552018D01*
X102200Y542445D01*
X127000Y539181D01*
X151800Y542445D01*
X174910Y552018D01*
X194755Y567245D01*
X209982Y587090D01*
X219555Y610200D01*
X222819Y635000D01*
X219555Y659800D01*
X209982Y682910D01*
X194755Y702754D01*
X174910Y717982D01*
X151800Y727555D01*
X127000Y730819D01*
X102200Y727555D01*
X79090Y717982D01*
X59246Y702754D01*
X44018Y682910D01*
X34445Y659800D01*
X33091Y649509D01*
X20391Y650341D01*
Y873659D01*
X33091Y874491D01*
X34445Y864200D01*
X44018Y841090D01*
X59246Y821246D01*
X79090Y806018D01*
X102200Y796445D01*
X127000Y793181D01*
X151800Y796445D01*
X174910Y806018D01*
X194755Y821246D01*
X209982Y841090D01*
X219555Y864200D01*
X222819Y889000D01*
X219555Y913800D01*
X209982Y936910D01*
X194755Y956754D01*
X174910Y971982D01*
X151800Y981555D01*
X127000Y984819D01*
X102200Y981555D01*
X79090Y971982D01*
X59246Y956754D01*
X44018Y936910D01*
X34445Y913800D01*
X33091Y903509D01*
X20391Y904341D01*
Y1127659D01*
X33091Y1128491D01*
X34445Y1118200D01*
X44018Y1095090D01*
X59246Y1075245D01*
X79090Y1060018D01*
X102200Y1050445D01*
X127000Y1047181D01*
X151800Y1050445D01*
X174910Y1060018D01*
X194755Y1075245D01*
X209982Y1095090D01*
X219555Y1118200D01*
X222819Y1143000D01*
X219555Y1167800D01*
X209982Y1190910D01*
X194755Y1210754D01*
X174910Y1225982D01*
X151800Y1235555D01*
X127000Y1238819D01*
X102200Y1235555D01*
X79090Y1225982D01*
X59246Y1210754D01*
X44018Y1190910D01*
X34445Y1167800D01*
X33091Y1157509D01*
X20391Y1158341D01*
Y1381659D01*
X33091Y1382491D01*
X34445Y1372200D01*
X44018Y1349090D01*
X59246Y1329245D01*
X79090Y1314018D01*
X102200Y1304445D01*
X127000Y1301181D01*
X151800Y1304445D01*
X174910Y1314018D01*
X194755Y1329245D01*
X209982Y1349090D01*
X219555Y1372200D01*
X222819Y1397000D01*
X219555Y1421800D01*
X209982Y1444910D01*
X194755Y1464754D01*
X174910Y1479982D01*
X151800Y1489555D01*
X127000Y1492819D01*
X102200Y1489555D01*
X79090Y1479982D01*
X59246Y1464754D01*
X44018Y1444910D01*
X34445Y1421800D01*
X33091Y1411509D01*
X20391Y1412341D01*
Y1635659D01*
X33091Y1636491D01*
X34445Y1626200D01*
X44018Y1603090D01*
X59246Y1583245D01*
X79090Y1568018D01*
X102200Y1558445D01*
X127000Y1555181D01*
X151800Y1558445D01*
X174910Y1568018D01*
X194755Y1583245D01*
X209982Y1603090D01*
X219555Y1626200D01*
X222819Y1651000D01*
X219555Y1675800D01*
X209982Y1698910D01*
X194755Y1718754D01*
X174910Y1733982D01*
X151800Y1743555D01*
X127000Y1746819D01*
X102200Y1743555D01*
X79090Y1733982D01*
X59246Y1718754D01*
X44018Y1698910D01*
X34445Y1675800D01*
X33091Y1665509D01*
X20391Y1666341D01*
Y2011609D01*
X1299367D01*
X1302000Y2000000D01*
D02*
G37*
%LPC*%
G36*
X990600Y1519082D02*
X973042Y1515589D01*
X958157Y1505643D01*
X948211Y1490758D01*
X944718Y1473200D01*
X948211Y1455642D01*
X958157Y1440757D01*
X973042Y1430811D01*
X990600Y1427318D01*
X1008158Y1430811D01*
X1023043Y1440757D01*
X1032989Y1455642D01*
X1036482Y1473200D01*
X1032989Y1490758D01*
X1023043Y1505643D01*
X1008158Y1515589D01*
X990600Y1519082D01*
D02*
G37*
G36*
X508000Y1455582D02*
X490442Y1452089D01*
X475557Y1442143D01*
X465611Y1427258D01*
X462118Y1409700D01*
X465611Y1392142D01*
X475094Y1377950D01*
X465611Y1363758D01*
X462118Y1346200D01*
X465611Y1328642D01*
X475094Y1314450D01*
X465611Y1300258D01*
X462118Y1282700D01*
X465611Y1265142D01*
X475557Y1250257D01*
X490442Y1240311D01*
X508000Y1236818D01*
X525558Y1240311D01*
X540443Y1250257D01*
X550389Y1265142D01*
X553882Y1282700D01*
X550389Y1300258D01*
X540906Y1314450D01*
X550389Y1328642D01*
X553882Y1346200D01*
X550389Y1363758D01*
X540906Y1377950D01*
X550389Y1392142D01*
X553882Y1409700D01*
X550389Y1427258D01*
X540443Y1442143D01*
X525558Y1452089D01*
X508000Y1455582D01*
D02*
G37*
G36*
X1244600Y960282D02*
X1227042Y956789D01*
X1212157Y946843D01*
X1202211Y931958D01*
X1198718Y914400D01*
X1202211Y896842D01*
X1212157Y881957D01*
X1227042Y872011D01*
X1244600Y868518D01*
X1262158Y872011D01*
X1277043Y881957D01*
X1286989Y896842D01*
X1290482Y914400D01*
X1286989Y931958D01*
X1277043Y946843D01*
X1262158Y956789D01*
X1244600Y960282D01*
D02*
G37*
G36*
X508000Y795182D02*
X490442Y791689D01*
X475557Y781743D01*
X465611Y766858D01*
X462118Y749300D01*
X465611Y731742D01*
X475094Y717550D01*
X465611Y703358D01*
X462118Y685800D01*
X465611Y668242D01*
X475094Y654050D01*
X465611Y639858D01*
X462118Y622300D01*
X465611Y604742D01*
X475557Y589857D01*
X490442Y579911D01*
X508000Y576418D01*
X525558Y579911D01*
X540443Y589857D01*
X550389Y604742D01*
X553882Y622300D01*
X550389Y639858D01*
X540906Y654050D01*
X550389Y668242D01*
X553882Y685800D01*
X550389Y703358D01*
X540906Y717550D01*
X550389Y731742D01*
X553882Y749300D01*
X550389Y766858D01*
X540443Y781743D01*
X525558Y791689D01*
X508000Y795182D01*
D02*
G37*
G36*
X1016000Y579282D02*
X998442Y575789D01*
X983557Y565843D01*
X973611Y550958D01*
X971674Y541222D01*
X958726D01*
X956789Y550958D01*
X946843Y565843D01*
X931958Y575789D01*
X914400Y579282D01*
X896842Y575789D01*
X881957Y565843D01*
X872011Y550958D01*
X868518Y533400D01*
X872011Y515842D01*
X881957Y500957D01*
X896842Y491011D01*
X914400Y487518D01*
X931958Y491011D01*
X946843Y500957D01*
X956789Y515842D01*
X958726Y525578D01*
X971674D01*
X973611Y515842D01*
X983557Y500957D01*
X998442Y491011D01*
X1016000Y487518D01*
X1033558Y491011D01*
X1048443Y500957D01*
X1058389Y515842D01*
X1061882Y533400D01*
X1058389Y550958D01*
X1048443Y565843D01*
X1033558Y575789D01*
X1016000Y579282D01*
D02*
G37*
%LPD*%
D10*
X1173282Y1179759D02*
G03*
X1159223Y1265760I-939468J-109436D01*
G01*
D02*
G03*
X1111405Y1353898I-172507J-36551D01*
G01*
X1111239Y1354064D02*
G03*
X1068670Y1371600I-42569J-42899D01*
G01*
X1303028Y977855D02*
X1395976Y900322D01*
X1396909Y890009D01*
X1397000Y889000D01*
X1187101Y1093783D02*
X1302231Y978653D01*
X1303029Y977855D01*
X1187101Y1093783D02*
Y1100453D01*
X1182082Y1104640D02*
X1187101Y1100453D01*
X1180969Y1114138D02*
Y1114138D01*
Y1114138D02*
X1182082Y1104640D01*
X1173282Y1179759D02*
X1180969Y1114138D01*
X1111239Y1354063D02*
X1111404Y1353898D01*
X812800Y1371600D02*
X1068670D01*
D21*
X1397000Y635000D02*
D03*
X127000Y127000D02*
D03*
Y381000D02*
D03*
Y889000D02*
D03*
Y1397000D02*
D03*
Y1651000D02*
D03*
Y1143000D02*
D03*
Y635000D02*
D03*
X1397000Y127000D02*
D03*
Y381000D02*
D03*
Y889000D02*
D03*
Y1397000D02*
D03*
Y1651000D02*
D03*
Y1143000D02*
D03*
D22*
X127000Y1905000D02*
D03*
X1397000D02*
D03*
D23*
X533400Y139700D02*
D03*
X609600Y1168400D02*
D03*
Y1092200D02*
D03*
Y1016000D02*
D03*
X685800Y1168400D02*
D03*
Y1092200D02*
D03*
Y1016000D02*
D03*
X762000Y1168400D02*
D03*
Y1092200D02*
D03*
Y1016000D02*
D03*
X838200Y1168400D02*
D03*
Y1092200D02*
D03*
Y1016000D02*
D03*
X609600Y939800D02*
D03*
X685800D02*
D03*
X762000D02*
D03*
X838200D02*
D03*
X914400Y1168400D02*
D03*
Y1092200D02*
D03*
Y1016000D02*
D03*
Y939800D02*
D03*
X762000Y863600D02*
D03*
X838200D02*
D03*
X685800D02*
D03*
X609600D02*
D03*
X914400D02*
D03*
X990600Y139700D02*
D03*
Y215900D02*
D03*
X533400D02*
D03*
X508000Y685800D02*
D03*
Y622300D02*
D03*
X279400Y685800D02*
D03*
Y622300D02*
D03*
X508000Y1346200D02*
D03*
Y1409700D02*
D03*
X279400Y1346200D02*
D03*
Y1409700D02*
D03*
X1244600Y914400D02*
D03*
X508000Y1282700D02*
D03*
X279400D02*
D03*
X812800Y1371600D02*
D03*
X1016000Y533400D02*
D03*
X914400D02*
D03*
X990600Y279400D02*
D03*
X1244600Y1219200D02*
D03*
Y1117600D02*
D03*
X990600Y1473200D02*
D03*
Y76200D02*
D03*
X533400D02*
D03*
Y279400D02*
D03*
X508000Y749300D02*
D03*
X279400D02*
D03*
%TF.MD5,db07452f23dfc52761734b8ddb6f3d64*%
M02*
