%TF.GenerationSoftware,Altium Limited,Altium Designer,20.1.11 (218)*%
G04 Layer_Color=0*
%FSLAX45Y45*%
%MOMM*%
%TF.SameCoordinates,A58613BD-9F4A-4EB4-9302-7A3247439128*%
%TF.FilePolarity,Positive*%
%TF.FileFunction,Plated,1,4,PTH,Drill*%
%TF.Part,Single*%
G01*
G75*
%TA.AperFunction,ComponentDrill*%
%ADD40C,1.10000*%
%TA.AperFunction,ViaDrill,NotFilled*%
%ADD41C,0.30000*%
D40*
X1397000Y635000D02*
D03*
X127000Y127000D02*
D03*
Y381000D02*
D03*
Y889000D02*
D03*
Y1397000D02*
D03*
Y1905000D02*
D03*
Y1651000D02*
D03*
Y1143000D02*
D03*
Y635000D02*
D03*
X1397000Y127000D02*
D03*
Y381000D02*
D03*
Y889000D02*
D03*
Y1397000D02*
D03*
Y1905000D02*
D03*
Y1651000D02*
D03*
Y1143000D02*
D03*
D41*
X533400Y139700D02*
D03*
X609600Y1168400D02*
D03*
Y1092200D02*
D03*
Y1016000D02*
D03*
X685800Y1168400D02*
D03*
Y1092200D02*
D03*
Y1016000D02*
D03*
X762000Y1168400D02*
D03*
Y1092200D02*
D03*
Y1016000D02*
D03*
X838200Y1168400D02*
D03*
Y1092200D02*
D03*
Y1016000D02*
D03*
X609600Y939800D02*
D03*
X685800D02*
D03*
X762000D02*
D03*
X838200D02*
D03*
X914400Y1168400D02*
D03*
Y1092200D02*
D03*
Y1016000D02*
D03*
Y939800D02*
D03*
X762000Y863600D02*
D03*
X838200D02*
D03*
X685800D02*
D03*
X609600D02*
D03*
X914400D02*
D03*
X990600Y139700D02*
D03*
Y215900D02*
D03*
X533400D02*
D03*
X508000Y685800D02*
D03*
Y622300D02*
D03*
X279400Y685800D02*
D03*
Y622300D02*
D03*
X508000Y1346200D02*
D03*
Y1409700D02*
D03*
X279400Y1346200D02*
D03*
Y1409700D02*
D03*
X1244600Y914400D02*
D03*
X508000Y1282700D02*
D03*
X279400D02*
D03*
X812800Y1371600D02*
D03*
X1016000Y533400D02*
D03*
X914400D02*
D03*
X990600Y279400D02*
D03*
X1244600Y1219200D02*
D03*
Y1117600D02*
D03*
X990600Y1473200D02*
D03*
Y76200D02*
D03*
X533400D02*
D03*
Y279400D02*
D03*
X508000Y749300D02*
D03*
X279400D02*
D03*
%TF.MD5,50b34cc6ff85db90734c26f82cff65d7*%
M02*
