%TF.GenerationSoftware,Altium Limited,Altium Designer,20.1.11 (218)*%
G04 Layer_Physical_Order=4*
G04 Layer_Color=16711680*
%FSLAX45Y45*%
%MOMM*%
%TF.SameCoordinates,8684D80F-3192-4470-AB3D-773AF577FA96*%
%TF.FilePolarity,Positive*%
%TF.FileFunction,Copper,L4,Bot,Signal*%
%TF.Part,Single*%
G01*
G75*
%TA.AperFunction,Conductor*%
%ADD10C,0.24999*%
%TA.AperFunction,ComponentPad*%
%ADD21C,1.60000*%
%ADD22R,1.60000X1.60000*%
%TA.AperFunction,ViaPad*%
%ADD23C,0.45000*%
G36*
X1307000Y1815000D02*
X1483218D01*
Y1707342D01*
X1470518Y1703031D01*
X1461189Y1715189D01*
X1442388Y1729615D01*
X1420495Y1738683D01*
X1397000Y1741776D01*
X1373505Y1738683D01*
X1351612Y1729615D01*
X1332811Y1715189D01*
X1318385Y1696388D01*
X1309317Y1674495D01*
X1306224Y1651000D01*
X1309317Y1627505D01*
X1318385Y1605612D01*
X1332811Y1586811D01*
X1351612Y1572385D01*
X1373505Y1563317D01*
X1397000Y1560224D01*
X1420495Y1563317D01*
X1442388Y1572385D01*
X1461189Y1586811D01*
X1470518Y1598969D01*
X1483218Y1594658D01*
Y1453342D01*
X1470518Y1449031D01*
X1461189Y1461189D01*
X1442388Y1475615D01*
X1420495Y1484683D01*
X1397000Y1487776D01*
X1373505Y1484683D01*
X1351612Y1475615D01*
X1332811Y1461189D01*
X1318385Y1442388D01*
X1309317Y1420495D01*
X1306224Y1397000D01*
X1309317Y1373505D01*
X1318385Y1351612D01*
X1332811Y1332811D01*
X1351612Y1318385D01*
X1373505Y1309317D01*
X1397000Y1306224D01*
X1420495Y1309317D01*
X1442388Y1318385D01*
X1461189Y1332811D01*
X1470518Y1344969D01*
X1483218Y1340658D01*
Y1199342D01*
X1470518Y1195031D01*
X1461189Y1207189D01*
X1442388Y1221615D01*
X1420495Y1230683D01*
X1397000Y1233776D01*
X1373505Y1230683D01*
X1351612Y1221615D01*
X1332811Y1207189D01*
X1318385Y1188388D01*
X1309317Y1166495D01*
X1306224Y1143000D01*
X1309317Y1119505D01*
X1318385Y1097612D01*
X1332811Y1078811D01*
X1351612Y1064385D01*
X1373505Y1055317D01*
X1397000Y1052224D01*
X1420495Y1055317D01*
X1442388Y1064385D01*
X1461189Y1078811D01*
X1470518Y1090969D01*
X1483218Y1086658D01*
Y945342D01*
X1470518Y941031D01*
X1461189Y953189D01*
X1442388Y967615D01*
X1420495Y976683D01*
X1397000Y979776D01*
X1373505Y976683D01*
X1351612Y967615D01*
X1343982Y961760D01*
X1259016Y1046726D01*
X1258205Y1047268D01*
X1230044Y1081582D01*
X1208665Y1121579D01*
X1195501Y1164977D01*
X1191150Y1209153D01*
X1191340Y1210110D01*
Y1241985D01*
X1192065Y1242146D01*
X1187422Y1277411D01*
X1173810Y1310273D01*
X1159486Y1328941D01*
X1152157Y1338493D01*
X1151987Y1338623D01*
X1151827Y1338463D01*
X1122654Y1362404D01*
X1089183Y1380295D01*
X1052866Y1391312D01*
X1015097Y1395031D01*
Y1394540D01*
X836559D01*
X836231Y1395031D01*
X825481Y1402214D01*
X812800Y1404737D01*
X800119Y1402214D01*
X789369Y1395031D01*
X782186Y1384281D01*
X779663Y1371600D01*
X782186Y1358919D01*
X789369Y1348169D01*
X800119Y1340986D01*
X812800Y1338463D01*
X825481Y1340986D01*
X836231Y1348169D01*
X836559Y1348660D01*
X1015098D01*
X1016410Y1348921D01*
X1053314Y1344062D01*
X1088927Y1329311D01*
X1109598Y1313450D01*
X1119046Y1305579D01*
X1119158Y1305493D01*
X1133394Y1286939D01*
X1142344Y1265332D01*
X1145397Y1242146D01*
X1145460Y1242109D01*
X1145460Y1241949D01*
Y1210110D01*
X1145046D01*
X1148460Y1166723D01*
X1158620Y1124403D01*
X1175276Y1084194D01*
X1198016Y1047086D01*
X1226281Y1013991D01*
X1226574Y1014284D01*
X1314896Y925963D01*
X1309317Y912495D01*
X1306224Y889000D01*
X1309317Y865505D01*
X1318385Y843612D01*
X1332811Y824811D01*
X1351612Y810385D01*
X1373505Y801317D01*
X1397000Y798224D01*
X1420495Y801317D01*
X1442388Y810385D01*
X1461189Y824811D01*
X1470518Y836969D01*
X1483218Y832658D01*
Y691342D01*
X1470518Y687031D01*
X1461189Y699189D01*
X1442388Y713615D01*
X1420495Y722683D01*
X1397000Y725776D01*
X1373505Y722683D01*
X1351612Y713615D01*
X1332811Y699189D01*
X1318385Y680388D01*
X1309317Y658495D01*
X1306224Y635000D01*
X1309317Y611505D01*
X1318385Y589612D01*
X1332811Y570811D01*
X1351612Y556385D01*
X1373505Y547317D01*
X1397000Y544224D01*
X1420495Y547317D01*
X1442388Y556385D01*
X1461189Y570811D01*
X1470518Y582969D01*
X1483218Y578658D01*
Y437342D01*
X1470518Y433031D01*
X1461189Y445189D01*
X1442388Y459615D01*
X1420495Y468683D01*
X1397000Y471776D01*
X1373505Y468683D01*
X1351612Y459615D01*
X1332811Y445189D01*
X1318385Y426388D01*
X1309317Y404495D01*
X1306224Y381000D01*
X1309317Y357505D01*
X1318385Y335612D01*
X1332811Y316811D01*
X1351612Y302385D01*
X1373505Y293317D01*
X1397000Y290224D01*
X1420495Y293317D01*
X1442388Y302385D01*
X1461189Y316811D01*
X1470518Y328969D01*
X1483218Y324658D01*
Y183342D01*
X1470518Y179031D01*
X1461189Y191189D01*
X1442388Y205615D01*
X1420495Y214683D01*
X1397000Y217776D01*
X1373505Y214683D01*
X1351612Y205615D01*
X1332811Y191189D01*
X1318385Y172388D01*
X1309317Y150495D01*
X1306224Y127000D01*
X1309317Y103505D01*
X1318385Y81612D01*
X1332811Y62811D01*
X1344969Y53482D01*
X1340658Y40782D01*
X561751D01*
X558136Y49589D01*
X557308Y53482D01*
X564014Y63519D01*
X566537Y76200D01*
X564014Y88881D01*
X556831Y99631D01*
Y103569D01*
X564014Y114319D01*
X566537Y127000D01*
X564014Y139681D01*
X556831Y150431D01*
Y154369D01*
X564014Y165119D01*
X566537Y177800D01*
X564014Y190481D01*
X556831Y201231D01*
Y205169D01*
X564014Y215919D01*
X566537Y228600D01*
X564014Y241281D01*
X556831Y252031D01*
Y255969D01*
X564014Y266719D01*
X566537Y279400D01*
X564014Y292081D01*
X556831Y302831D01*
X546081Y310014D01*
X533400Y312537D01*
X520719Y310014D01*
X509969Y302831D01*
X502786Y292081D01*
X500263Y279400D01*
X502786Y266719D01*
X509969Y255969D01*
Y252031D01*
X502786Y241281D01*
X500263Y228600D01*
X502786Y215919D01*
X509969Y205169D01*
Y201231D01*
X502786Y190481D01*
X500263Y177800D01*
X502786Y165119D01*
X509969Y154369D01*
Y150431D01*
X502786Y139681D01*
X500263Y127000D01*
X502786Y114319D01*
X509969Y103569D01*
Y99631D01*
X502786Y88881D01*
X500263Y76200D01*
X502786Y63519D01*
X509492Y53482D01*
X508664Y49589D01*
X505049Y40782D01*
X183342D01*
X179031Y53482D01*
X191189Y62811D01*
X205615Y81612D01*
X214683Y103505D01*
X217776Y127000D01*
X214683Y150495D01*
X205615Y172388D01*
X191189Y191189D01*
X172388Y205615D01*
X150495Y214683D01*
X127000Y217776D01*
X103505Y214683D01*
X81612Y205615D01*
X62811Y191189D01*
X53482Y179031D01*
X40782Y183342D01*
Y578658D01*
X53482Y582969D01*
X62811Y570811D01*
X81612Y556385D01*
X103505Y547317D01*
X127000Y544224D01*
X150495Y547317D01*
X172388Y556385D01*
X191189Y570811D01*
X205615Y589612D01*
X214683Y611505D01*
X217776Y635000D01*
X214683Y658495D01*
X205615Y680388D01*
X191189Y699189D01*
X172388Y713615D01*
X150495Y722683D01*
X127000Y725776D01*
X103505Y722683D01*
X81612Y713615D01*
X62811Y699189D01*
X53482Y687031D01*
X40782Y691342D01*
Y832658D01*
X53482Y836969D01*
X62811Y824811D01*
X81612Y810385D01*
X103505Y801317D01*
X127000Y798224D01*
X150495Y801317D01*
X172388Y810385D01*
X191189Y824811D01*
X205615Y843612D01*
X214683Y865505D01*
X217776Y889000D01*
X214683Y912495D01*
X205615Y934388D01*
X191189Y953189D01*
X172388Y967615D01*
X150495Y976683D01*
X127000Y979776D01*
X103505Y976683D01*
X81612Y967615D01*
X62811Y953189D01*
X53482Y941031D01*
X40782Y945342D01*
Y1086658D01*
X53482Y1090969D01*
X62811Y1078811D01*
X81612Y1064385D01*
X103505Y1055317D01*
X127000Y1052224D01*
X150495Y1055317D01*
X172388Y1064385D01*
X191189Y1078811D01*
X205615Y1097612D01*
X214683Y1119505D01*
X217776Y1143000D01*
X214683Y1166495D01*
X205615Y1188388D01*
X191189Y1207189D01*
X172388Y1221615D01*
X150495Y1230683D01*
X127000Y1233776D01*
X103505Y1230683D01*
X81612Y1221615D01*
X62811Y1207189D01*
X53482Y1195031D01*
X40782Y1199342D01*
Y1340658D01*
X53482Y1344969D01*
X62811Y1332811D01*
X81612Y1318385D01*
X103505Y1309317D01*
X127000Y1306224D01*
X150495Y1309317D01*
X172388Y1318385D01*
X191189Y1332811D01*
X205615Y1351612D01*
X214683Y1373505D01*
X217776Y1397000D01*
X214683Y1420495D01*
X205615Y1442388D01*
X191189Y1461189D01*
X172388Y1475615D01*
X150495Y1484683D01*
X127000Y1487776D01*
X103505Y1484683D01*
X81612Y1475615D01*
X62811Y1461189D01*
X53482Y1449031D01*
X40782Y1453342D01*
Y1594658D01*
X53482Y1598969D01*
X62811Y1586811D01*
X81612Y1572385D01*
X103505Y1563317D01*
X127000Y1560224D01*
X150495Y1563317D01*
X172388Y1572385D01*
X191189Y1586811D01*
X205615Y1605612D01*
X214683Y1627505D01*
X217776Y1651000D01*
X214683Y1674495D01*
X205615Y1696388D01*
X191189Y1715189D01*
X172388Y1729615D01*
X150495Y1738683D01*
X127000Y1741776D01*
X103505Y1738683D01*
X81612Y1729615D01*
X62811Y1715189D01*
X53482Y1703031D01*
X40782Y1707342D01*
Y1991218D01*
X1307000D01*
Y1815000D01*
D02*
G37*
%LPC*%
G36*
X990600Y1506337D02*
X977919Y1503814D01*
X967169Y1496631D01*
X959986Y1485881D01*
X957463Y1473200D01*
X959986Y1460519D01*
X967169Y1449769D01*
X977919Y1442586D01*
X990600Y1440063D01*
X1003281Y1442586D01*
X1014031Y1449769D01*
X1021214Y1460519D01*
X1023737Y1473200D01*
X1021214Y1485881D01*
X1014031Y1496631D01*
X1003281Y1503814D01*
X990600Y1506337D01*
D02*
G37*
G36*
X508000Y1455537D02*
X495319Y1453014D01*
X484569Y1445831D01*
X477386Y1435081D01*
X474863Y1422400D01*
X477386Y1409719D01*
X484569Y1398969D01*
Y1395031D01*
X477386Y1384281D01*
X474863Y1371600D01*
X477386Y1358919D01*
X484569Y1348169D01*
Y1344231D01*
X477386Y1333481D01*
X474863Y1320800D01*
X477386Y1308119D01*
X484569Y1297369D01*
Y1293431D01*
X477386Y1282681D01*
X474863Y1270000D01*
X477386Y1257319D01*
X484569Y1246569D01*
X495319Y1239386D01*
X508000Y1236863D01*
X520681Y1239386D01*
X531431Y1246569D01*
X538614Y1257319D01*
X541137Y1270000D01*
X538614Y1282681D01*
X531431Y1293431D01*
Y1297369D01*
X538614Y1308119D01*
X541137Y1320800D01*
X538614Y1333481D01*
X531431Y1344231D01*
Y1348169D01*
X538614Y1358919D01*
X541137Y1371600D01*
X538614Y1384281D01*
X531431Y1395031D01*
Y1398969D01*
X538614Y1409719D01*
X541137Y1422400D01*
X538614Y1435081D01*
X531431Y1445831D01*
X520681Y1453014D01*
X508000Y1455537D01*
D02*
G37*
G36*
X1244600Y1252337D02*
X1231919Y1249814D01*
X1221169Y1242631D01*
X1213986Y1231881D01*
X1211463Y1219200D01*
X1213986Y1206519D01*
X1221169Y1195769D01*
X1231919Y1188586D01*
X1244600Y1186063D01*
X1257281Y1188586D01*
X1268031Y1195769D01*
X1275214Y1206519D01*
X1277737Y1219200D01*
X1275214Y1231881D01*
X1268031Y1242631D01*
X1257281Y1249814D01*
X1244600Y1252337D01*
D02*
G37*
G36*
Y947537D02*
X1231919Y945014D01*
X1221169Y937831D01*
X1213986Y927081D01*
X1211463Y914400D01*
X1213986Y901719D01*
X1221169Y890969D01*
X1231919Y883786D01*
X1244600Y881263D01*
X1257281Y883786D01*
X1268031Y890969D01*
X1275214Y901719D01*
X1277737Y914400D01*
X1275214Y927081D01*
X1268031Y937831D01*
X1257281Y945014D01*
X1244600Y947537D01*
D02*
G37*
G36*
X508000Y795137D02*
X495319Y792614D01*
X484569Y785431D01*
X477386Y774681D01*
X474863Y762000D01*
X477386Y749319D01*
X484569Y738569D01*
Y734631D01*
X477386Y723881D01*
X474863Y711200D01*
X477386Y698519D01*
X484569Y687769D01*
Y683831D01*
X477386Y673081D01*
X474863Y660400D01*
X477386Y647719D01*
X484569Y636969D01*
Y633031D01*
X477386Y622281D01*
X474863Y609600D01*
X477386Y596919D01*
X484569Y586169D01*
X495319Y578986D01*
X508000Y576463D01*
X520681Y578986D01*
X531431Y586169D01*
X538614Y596919D01*
X541137Y609600D01*
X538614Y622281D01*
X531431Y633031D01*
Y636969D01*
X538614Y647719D01*
X541137Y660400D01*
X538614Y673081D01*
X531431Y683831D01*
Y687769D01*
X538614Y698519D01*
X541137Y711200D01*
X538614Y723881D01*
X531431Y734631D01*
Y738569D01*
X538614Y749319D01*
X541137Y762000D01*
X538614Y774681D01*
X531431Y785431D01*
X520681Y792614D01*
X508000Y795137D01*
D02*
G37*
G36*
X1016000Y566537D02*
X1003319Y564014D01*
X992569Y556831D01*
X985386Y546081D01*
X982863Y533400D01*
X985386Y520719D01*
X992569Y509969D01*
X1003319Y502786D01*
X1016000Y500263D01*
X1028681Y502786D01*
X1039431Y509969D01*
X1046614Y520719D01*
X1049137Y533400D01*
X1046614Y546081D01*
X1039431Y556831D01*
X1028681Y564014D01*
X1016000Y566537D01*
D02*
G37*
G36*
X914400D02*
X901719Y564014D01*
X890969Y556831D01*
X883786Y546081D01*
X881263Y533400D01*
X883786Y520719D01*
X890969Y509969D01*
X901719Y502786D01*
X914400Y500263D01*
X927081Y502786D01*
X937831Y509969D01*
X945014Y520719D01*
X947537Y533400D01*
X945014Y546081D01*
X937831Y556831D01*
X927081Y564014D01*
X914400Y566537D01*
D02*
G37*
%LPD*%
D10*
X1135299Y1321883D02*
G03*
X1015097Y1371600I-120202J-120448D01*
G01*
X1168400Y1242146D02*
G03*
X1135299Y1321883I-112591J-1D01*
G01*
X1168400Y1210110D02*
G03*
X1242795Y1030505I254000J0D01*
G01*
X1375320Y897980D02*
G03*
X1396999Y889000I21680J21680D01*
G01*
X1168400Y1210110D02*
Y1241986D01*
X1168400Y1242146D02*
X1168400Y1241986D01*
X1242795Y1030505D02*
X1375320Y897980D01*
X812800Y1371600D02*
X1015098D01*
D21*
X127000Y127000D02*
D03*
Y381000D02*
D03*
Y889000D02*
D03*
Y1397000D02*
D03*
Y1651000D02*
D03*
Y1143000D02*
D03*
Y635000D02*
D03*
X1397000Y127000D02*
D03*
Y381000D02*
D03*
Y889000D02*
D03*
Y1397000D02*
D03*
Y1651000D02*
D03*
Y1143000D02*
D03*
Y635000D02*
D03*
D22*
X127000Y1905000D02*
D03*
X1397000D02*
D03*
D23*
X1244600Y914400D02*
D03*
X508000Y1422400D02*
D03*
Y1371600D02*
D03*
Y1320800D02*
D03*
Y1270000D02*
D03*
X279400Y1422400D02*
D03*
Y1371600D02*
D03*
Y1320800D02*
D03*
Y1270000D02*
D03*
X609600Y1117600D02*
D03*
Y1066800D02*
D03*
Y1168400D02*
D03*
X812800Y1371600D02*
D03*
X1016000Y533400D02*
D03*
X914400D02*
D03*
X990600Y228600D02*
D03*
Y127000D02*
D03*
Y177800D02*
D03*
Y279400D02*
D03*
X508000Y609600D02*
D03*
X1244600Y1219200D02*
D03*
Y1117600D02*
D03*
X990600Y1473200D02*
D03*
Y76200D02*
D03*
X533400D02*
D03*
Y279400D02*
D03*
Y127000D02*
D03*
Y177800D02*
D03*
Y228600D02*
D03*
X508000Y762000D02*
D03*
Y711200D02*
D03*
Y660400D02*
D03*
X279400Y609600D02*
D03*
Y660400D02*
D03*
Y711200D02*
D03*
Y762000D02*
D03*
X660400Y965200D02*
D03*
X711200D02*
D03*
X762000D02*
D03*
Y1016000D02*
D03*
X711200D02*
D03*
X660400D02*
D03*
Y1066800D02*
D03*
X711200D02*
D03*
X762000D02*
D03*
X812800D02*
D03*
Y1016000D02*
D03*
Y965200D02*
D03*
Y914400D02*
D03*
X762000D02*
D03*
X711200D02*
D03*
X660400D02*
D03*
X609600D02*
D03*
Y965200D02*
D03*
Y1016000D02*
D03*
X863600Y1066800D02*
D03*
Y1016000D02*
D03*
Y965200D02*
D03*
Y914400D02*
D03*
Y863600D02*
D03*
X812800D02*
D03*
X762000D02*
D03*
X711200D02*
D03*
X660400D02*
D03*
X609600D02*
D03*
X914400D02*
D03*
Y914400D02*
D03*
Y965200D02*
D03*
Y1016000D02*
D03*
Y1066800D02*
D03*
Y1117600D02*
D03*
X863600D02*
D03*
X812800D02*
D03*
X762000D02*
D03*
X711200D02*
D03*
X660400D02*
D03*
X914400Y1168400D02*
D03*
X863600D02*
D03*
X812800D02*
D03*
X762000D02*
D03*
X711200D02*
D03*
X660400D02*
D03*
%TF.MD5,19728d4ffb3a1bd26277a811126a0e69*%
M02*
