%TF.GenerationSoftware,Altium Limited,Altium Designer,20.1.11 (218)*%
G04 Layer_Color=2752767*
%FSLAX45Y45*%
%MOMM*%
%TF.SameCoordinates,8684D80F-3192-4470-AB3D-773AF577FA96*%
%TF.FilePolarity,Positive*%
%TF.FileFunction,Drawing*%
%TF.Part,Single*%
G01*
G75*
%TA.AperFunction,NonConductor*%
%ADD43C,0.12700*%
%ADD44C,0.16933*%
D43*
X76200Y76200D02*
Y177800D01*
X177800D01*
Y76200D01*
X76200D01*
Y330200D02*
Y431800D01*
X177800D01*
Y330200D01*
X76200D01*
Y838200D02*
Y939800D01*
X177800D01*
Y838200D01*
X76200D01*
Y1346200D02*
Y1447800D01*
X177800D01*
Y1346200D01*
X76200D01*
Y1854200D02*
Y1955800D01*
X177800D01*
Y1854200D01*
X76200D01*
Y1600200D02*
Y1701800D01*
X177800D01*
Y1600200D01*
X76200D01*
Y1092200D02*
Y1193800D01*
X177800D01*
Y1092200D01*
X76200D01*
Y584200D02*
Y685800D01*
X177800D01*
Y584200D01*
X76200D01*
X1346200Y76200D02*
Y177800D01*
X1447800D01*
Y76200D01*
X1346200D01*
Y330200D02*
Y431800D01*
X1447800D01*
Y330200D01*
X1346200D01*
Y838200D02*
Y939800D01*
X1447800D01*
Y838200D01*
X1346200D01*
Y1346200D02*
Y1447800D01*
X1447800D01*
Y1346200D01*
X1346200D01*
Y1854200D02*
Y1955800D01*
X1447800D01*
Y1854200D01*
X1346200D01*
Y1600200D02*
Y1701800D01*
X1447800D01*
Y1600200D01*
X1346200D01*
Y1092200D02*
Y1193800D01*
X1447800D01*
Y1092200D01*
X1346200D01*
Y584200D02*
Y685800D01*
X1447800D01*
Y584200D01*
X1346200D01*
D44*
X1295400Y914400D02*
G03*
X1295400Y914400I-50800J0D01*
G01*
X558800Y1422400D02*
G03*
X558800Y1422400I-50800J0D01*
G01*
Y1371600D02*
G03*
X558800Y1371600I-50800J0D01*
G01*
Y1320800D02*
G03*
X558800Y1320800I-50800J0D01*
G01*
Y1270000D02*
G03*
X558800Y1270000I-50800J0D01*
G01*
X330200Y1422400D02*
G03*
X330200Y1422400I-50800J0D01*
G01*
Y1371600D02*
G03*
X330200Y1371600I-50800J0D01*
G01*
Y1320800D02*
G03*
X330200Y1320800I-50800J0D01*
G01*
Y1270000D02*
G03*
X330200Y1270000I-50800J0D01*
G01*
X660400Y1117600D02*
G03*
X660400Y1117600I-50800J0D01*
G01*
Y1066800D02*
G03*
X660400Y1066800I-50800J0D01*
G01*
Y1168400D02*
G03*
X660400Y1168400I-50800J0D01*
G01*
X863600Y1371600D02*
G03*
X863600Y1371600I-50800J0D01*
G01*
X1066800Y533400D02*
G03*
X1066800Y533400I-50800J0D01*
G01*
X965200D02*
G03*
X965200Y533400I-50800J0D01*
G01*
X1041400Y228600D02*
G03*
X1041400Y228600I-50800J0D01*
G01*
Y127000D02*
G03*
X1041400Y127000I-50800J0D01*
G01*
Y177800D02*
G03*
X1041400Y177800I-50800J0D01*
G01*
Y279400D02*
G03*
X1041400Y279400I-50800J0D01*
G01*
X558800Y609600D02*
G03*
X558800Y609600I-50800J0D01*
G01*
X1295400Y1219200D02*
G03*
X1295400Y1219200I-50800J0D01*
G01*
Y1117600D02*
G03*
X1295400Y1117600I-50800J0D01*
G01*
X1041400Y1473200D02*
G03*
X1041400Y1473200I-50800J0D01*
G01*
Y76200D02*
G03*
X1041400Y76200I-50800J0D01*
G01*
X584200D02*
G03*
X584200Y76200I-50800J0D01*
G01*
Y279400D02*
G03*
X584200Y279400I-50800J0D01*
G01*
Y127000D02*
G03*
X584200Y127000I-50800J0D01*
G01*
Y177800D02*
G03*
X584200Y177800I-50800J0D01*
G01*
Y228600D02*
G03*
X584200Y228600I-50800J0D01*
G01*
X558800Y762000D02*
G03*
X558800Y762000I-50800J0D01*
G01*
Y711200D02*
G03*
X558800Y711200I-50800J0D01*
G01*
Y660400D02*
G03*
X558800Y660400I-50800J0D01*
G01*
X330200Y609600D02*
G03*
X330200Y609600I-50800J0D01*
G01*
Y660400D02*
G03*
X330200Y660400I-50800J0D01*
G01*
Y711200D02*
G03*
X330200Y711200I-50800J0D01*
G01*
Y762000D02*
G03*
X330200Y762000I-50800J0D01*
G01*
X711200Y965200D02*
G03*
X711200Y965200I-50800J0D01*
G01*
X762000D02*
G03*
X762000Y965200I-50800J0D01*
G01*
X812800D02*
G03*
X812800Y965200I-50800J0D01*
G01*
Y1016000D02*
G03*
X812800Y1016000I-50800J0D01*
G01*
X762000D02*
G03*
X762000Y1016000I-50800J0D01*
G01*
X711200D02*
G03*
X711200Y1016000I-50800J0D01*
G01*
Y1066800D02*
G03*
X711200Y1066800I-50800J0D01*
G01*
X762000D02*
G03*
X762000Y1066800I-50800J0D01*
G01*
X812800D02*
G03*
X812800Y1066800I-50800J0D01*
G01*
X863600D02*
G03*
X863600Y1066800I-50800J0D01*
G01*
Y1016000D02*
G03*
X863600Y1016000I-50800J0D01*
G01*
Y965200D02*
G03*
X863600Y965200I-50800J0D01*
G01*
Y914400D02*
G03*
X863600Y914400I-50800J0D01*
G01*
X812800D02*
G03*
X812800Y914400I-50800J0D01*
G01*
X762000D02*
G03*
X762000Y914400I-50800J0D01*
G01*
X711200D02*
G03*
X711200Y914400I-50800J0D01*
G01*
X660400D02*
G03*
X660400Y914400I-50800J0D01*
G01*
Y965200D02*
G03*
X660400Y965200I-50800J0D01*
G01*
Y1016000D02*
G03*
X660400Y1016000I-50800J0D01*
G01*
X914400Y1066800D02*
G03*
X914400Y1066800I-50800J0D01*
G01*
Y1016000D02*
G03*
X914400Y1016000I-50800J0D01*
G01*
Y965200D02*
G03*
X914400Y965200I-50800J0D01*
G01*
Y914400D02*
G03*
X914400Y914400I-50800J0D01*
G01*
Y863600D02*
G03*
X914400Y863600I-50800J0D01*
G01*
X863600D02*
G03*
X863600Y863600I-50800J0D01*
G01*
X812800D02*
G03*
X812800Y863600I-50800J0D01*
G01*
X762000D02*
G03*
X762000Y863600I-50800J0D01*
G01*
X711200D02*
G03*
X711200Y863600I-50800J0D01*
G01*
X660400D02*
G03*
X660400Y863600I-50800J0D01*
G01*
X965200D02*
G03*
X965200Y863600I-50800J0D01*
G01*
Y914400D02*
G03*
X965200Y914400I-50800J0D01*
G01*
Y965200D02*
G03*
X965200Y965200I-50800J0D01*
G01*
Y1016000D02*
G03*
X965200Y1016000I-50800J0D01*
G01*
Y1066800D02*
G03*
X965200Y1066800I-50800J0D01*
G01*
Y1117600D02*
G03*
X965200Y1117600I-50800J0D01*
G01*
X914400D02*
G03*
X914400Y1117600I-50800J0D01*
G01*
X863600D02*
G03*
X863600Y1117600I-50800J0D01*
G01*
X812800D02*
G03*
X812800Y1117600I-50800J0D01*
G01*
X762000D02*
G03*
X762000Y1117600I-50800J0D01*
G01*
X711200D02*
G03*
X711200Y1117600I-50800J0D01*
G01*
X965200Y1168400D02*
G03*
X965200Y1168400I-50800J0D01*
G01*
X914400D02*
G03*
X914400Y1168400I-50800J0D01*
G01*
X863600D02*
G03*
X863600Y1168400I-50800J0D01*
G01*
X812800D02*
G03*
X812800Y1168400I-50800J0D01*
G01*
X762000D02*
G03*
X762000Y1168400I-50800J0D01*
G01*
X711200D02*
G03*
X711200Y1168400I-50800J0D01*
G01*
%TF.MD5,7c9e6e5463f5168e3fc370b687818ef2*%
M02*
