%TF.GenerationSoftware,Altium Limited,Altium Designer,20.1.11 (218)*%
G04 Layer_Color=128*
%FSLAX45Y45*%
%MOMM*%
%TF.SameCoordinates,8684D80F-3192-4470-AB3D-773AF577FA96*%
%TF.FilePolarity,Positive*%
%TF.FileFunction,Drillmap*%
%TF.Part,Single*%
G01*
G75*
%TA.AperFunction,NonConductor*%
%ADD43C,0.12700*%
D43*
X72000Y127000D02*
X182000D01*
X127000Y72000D02*
Y182000D01*
X72000Y381000D02*
X182000D01*
X127000Y326000D02*
Y436000D01*
X72000Y889000D02*
X182000D01*
X127000Y834000D02*
Y944000D01*
X72000Y1397000D02*
X182000D01*
X127000Y1342000D02*
Y1452000D01*
X72000Y1905000D02*
X182000D01*
X127000Y1850000D02*
Y1960000D01*
X72000Y1651000D02*
X182000D01*
X127000Y1596000D02*
Y1706000D01*
X72000Y1143000D02*
X182000D01*
X127000Y1088000D02*
Y1198000D01*
X72000Y635000D02*
X182000D01*
X127000Y580000D02*
Y690000D01*
X1342000Y127000D02*
X1452000D01*
X1397000Y72000D02*
Y182000D01*
X1342000Y381000D02*
X1452000D01*
X1397000Y326000D02*
Y436000D01*
X1342000Y889000D02*
X1452000D01*
X1397000Y834000D02*
Y944000D01*
X1342000Y1397000D02*
X1452000D01*
X1397000Y1342000D02*
Y1452000D01*
X1342000Y1905000D02*
X1452000D01*
X1397000Y1850000D02*
Y1960000D01*
X1342000Y1651000D02*
X1452000D01*
X1397000Y1596000D02*
Y1706000D01*
X1342000Y1143000D02*
X1452000D01*
X1397000Y1088000D02*
Y1198000D01*
X1342000Y635000D02*
X1452000D01*
X1397000Y580000D02*
Y690000D01*
X1234600Y914400D02*
X1254600D01*
X1244600Y904400D02*
Y924400D01*
X498000Y1422400D02*
X518000D01*
X508000Y1412400D02*
Y1432400D01*
X498000Y1371600D02*
X518000D01*
X508000Y1361600D02*
Y1381600D01*
X498000Y1320800D02*
X518000D01*
X508000Y1310800D02*
Y1330800D01*
X498000Y1270000D02*
X518000D01*
X508000Y1260000D02*
Y1280000D01*
X269400Y1422400D02*
X289400D01*
X279400Y1412400D02*
Y1432400D01*
X269400Y1371600D02*
X289400D01*
X279400Y1361600D02*
Y1381600D01*
X269400Y1320800D02*
X289400D01*
X279400Y1310800D02*
Y1330800D01*
X269400Y1270000D02*
X289400D01*
X279400Y1260000D02*
Y1280000D01*
X599600Y1117600D02*
X619600D01*
X609600Y1107600D02*
Y1127600D01*
X599600Y1066800D02*
X619600D01*
X609600Y1056800D02*
Y1076800D01*
X599600Y1168400D02*
X619600D01*
X609600Y1158400D02*
Y1178400D01*
X802800Y1371600D02*
X822800D01*
X812800Y1361600D02*
Y1381600D01*
X1006000Y533400D02*
X1026000D01*
X1016000Y523400D02*
Y543400D01*
X904400Y533400D02*
X924400D01*
X914400Y523400D02*
Y543400D01*
X980600Y228600D02*
X1000600D01*
X990600Y218600D02*
Y238600D01*
X980600Y127000D02*
X1000600D01*
X990600Y117000D02*
Y137000D01*
X980600Y177800D02*
X1000600D01*
X990600Y167800D02*
Y187800D01*
X980600Y279400D02*
X1000600D01*
X990600Y269400D02*
Y289400D01*
X498000Y609600D02*
X518000D01*
X508000Y599600D02*
Y619600D01*
X1234600Y1219200D02*
X1254600D01*
X1244600Y1209200D02*
Y1229200D01*
X1234600Y1117600D02*
X1254600D01*
X1244600Y1107600D02*
Y1127600D01*
X980600Y1473200D02*
X1000600D01*
X990600Y1463200D02*
Y1483200D01*
X980600Y76200D02*
X1000600D01*
X990600Y66200D02*
Y86200D01*
X523400Y76200D02*
X543400D01*
X533400Y66200D02*
Y86200D01*
X523400Y279400D02*
X543400D01*
X533400Y269400D02*
Y289400D01*
X523400Y127000D02*
X543400D01*
X533400Y117000D02*
Y137000D01*
X523400Y177800D02*
X543400D01*
X533400Y167800D02*
Y187800D01*
X523400Y228600D02*
X543400D01*
X533400Y218600D02*
Y238600D01*
X498000Y762000D02*
X518000D01*
X508000Y752000D02*
Y772000D01*
X498000Y711200D02*
X518000D01*
X508000Y701200D02*
Y721200D01*
X498000Y660400D02*
X518000D01*
X508000Y650400D02*
Y670400D01*
X269400Y609600D02*
X289400D01*
X279400Y599600D02*
Y619600D01*
X269400Y660400D02*
X289400D01*
X279400Y650400D02*
Y670400D01*
X269400Y711200D02*
X289400D01*
X279400Y701200D02*
Y721200D01*
X269400Y762000D02*
X289400D01*
X279400Y752000D02*
Y772000D01*
X650400Y965200D02*
X670400D01*
X660400Y955200D02*
Y975200D01*
X701200Y965200D02*
X721200D01*
X711200Y955200D02*
Y975200D01*
X752000Y965200D02*
X772000D01*
X762000Y955200D02*
Y975200D01*
X752000Y1016000D02*
X772000D01*
X762000Y1006000D02*
Y1026000D01*
X701200Y1016000D02*
X721200D01*
X711200Y1006000D02*
Y1026000D01*
X650400Y1016000D02*
X670400D01*
X660400Y1006000D02*
Y1026000D01*
X650400Y1066800D02*
X670400D01*
X660400Y1056800D02*
Y1076800D01*
X701200Y1066800D02*
X721200D01*
X711200Y1056800D02*
Y1076800D01*
X752000Y1066800D02*
X772000D01*
X762000Y1056800D02*
Y1076800D01*
X802800Y1066800D02*
X822800D01*
X812800Y1056800D02*
Y1076800D01*
X802800Y1016000D02*
X822800D01*
X812800Y1006000D02*
Y1026000D01*
X802800Y965200D02*
X822800D01*
X812800Y955200D02*
Y975200D01*
X802800Y914400D02*
X822800D01*
X812800Y904400D02*
Y924400D01*
X752000Y914400D02*
X772000D01*
X762000Y904400D02*
Y924400D01*
X701200Y914400D02*
X721200D01*
X711200Y904400D02*
Y924400D01*
X650400Y914400D02*
X670400D01*
X660400Y904400D02*
Y924400D01*
X599600Y914400D02*
X619600D01*
X609600Y904400D02*
Y924400D01*
X599600Y965200D02*
X619600D01*
X609600Y955200D02*
Y975200D01*
X599600Y1016000D02*
X619600D01*
X609600Y1006000D02*
Y1026000D01*
X853600Y1066800D02*
X873600D01*
X863600Y1056800D02*
Y1076800D01*
X853600Y1016000D02*
X873600D01*
X863600Y1006000D02*
Y1026000D01*
X853600Y965200D02*
X873600D01*
X863600Y955200D02*
Y975200D01*
X853600Y914400D02*
X873600D01*
X863600Y904400D02*
Y924400D01*
X853600Y863600D02*
X873600D01*
X863600Y853600D02*
Y873600D01*
X802800Y863600D02*
X822800D01*
X812800Y853600D02*
Y873600D01*
X752000Y863600D02*
X772000D01*
X762000Y853600D02*
Y873600D01*
X701200Y863600D02*
X721200D01*
X711200Y853600D02*
Y873600D01*
X650400Y863600D02*
X670400D01*
X660400Y853600D02*
Y873600D01*
X599600Y863600D02*
X619600D01*
X609600Y853600D02*
Y873600D01*
X904400Y863600D02*
X924400D01*
X914400Y853600D02*
Y873600D01*
X904400Y914400D02*
X924400D01*
X914400Y904400D02*
Y924400D01*
X904400Y965200D02*
X924400D01*
X914400Y955200D02*
Y975200D01*
X904400Y1016000D02*
X924400D01*
X914400Y1006000D02*
Y1026000D01*
X904400Y1066800D02*
X924400D01*
X914400Y1056800D02*
Y1076800D01*
X904400Y1117600D02*
X924400D01*
X914400Y1107600D02*
Y1127600D01*
X853600Y1117600D02*
X873600D01*
X863600Y1107600D02*
Y1127600D01*
X802800Y1117600D02*
X822800D01*
X812800Y1107600D02*
Y1127600D01*
X752000Y1117600D02*
X772000D01*
X762000Y1107600D02*
Y1127600D01*
X701200Y1117600D02*
X721200D01*
X711200Y1107600D02*
Y1127600D01*
X650400Y1117600D02*
X670400D01*
X660400Y1107600D02*
Y1127600D01*
X904400Y1168400D02*
X924400D01*
X914400Y1158400D02*
Y1178400D01*
X853600Y1168400D02*
X873600D01*
X863600Y1158400D02*
Y1178400D01*
X802800Y1168400D02*
X822800D01*
X812800Y1158400D02*
Y1178400D01*
X752000Y1168400D02*
X772000D01*
X762000Y1158400D02*
Y1178400D01*
X701200Y1168400D02*
X721200D01*
X711200Y1158400D02*
Y1178400D01*
X650400Y1168400D02*
X670400D01*
X660400Y1158400D02*
Y1178400D01*
%TF.MD5,c0f1dc417765aa1cfd5a74c1b6d1fd7b*%
M02*
